G04*
G04 #@! TF.GenerationSoftware,Altium Limited,Altium Designer,18.1.7 (191)*
G04*
G04 Layer_Color=65535*
%FSLAX25Y25*%
%MOIN*%
G70*
G01*
G75*
%ADD10C,0.00984*%
%ADD11C,0.00500*%
%ADD12C,0.02362*%
%ADD13C,0.00787*%
%ADD14C,0.01000*%
%ADD15C,0.00394*%
%ADD16C,0.01100*%
G36*
X313800Y496800D02*
Y496000D01*
Y495200D01*
Y494400D01*
Y493600D01*
Y492800D01*
Y492000D01*
Y491200D01*
Y490400D01*
Y489600D01*
Y488800D01*
Y488000D01*
Y487200D01*
Y486400D01*
Y485600D01*
Y484800D01*
Y484000D01*
Y483200D01*
Y482400D01*
Y481600D01*
Y480800D01*
X313000D01*
Y480000D01*
X312200D01*
Y479200D01*
X311400D01*
Y478400D01*
X309800D01*
Y479200D01*
X310600D01*
Y480000D01*
X311400D01*
Y480800D01*
X309000D01*
Y480000D01*
Y479200D01*
Y478400D01*
X309800D01*
Y477600D01*
Y476800D01*
X294600D01*
Y477600D01*
Y478400D01*
Y479200D01*
Y480000D01*
Y480800D01*
Y481600D01*
Y482400D01*
Y483200D01*
Y484000D01*
Y484800D01*
Y485600D01*
Y486400D01*
Y487200D01*
Y488000D01*
Y488800D01*
Y489600D01*
Y490400D01*
Y491200D01*
Y492000D01*
Y492800D01*
Y493600D01*
Y494400D01*
X295400D01*
Y495200D01*
X296200D01*
Y494400D01*
X298600D01*
Y495200D01*
Y496000D01*
X297800D01*
Y495200D01*
X296200D01*
Y496000D01*
X297000D01*
Y496800D01*
X297800D01*
Y497600D01*
X313800D01*
Y496800D01*
D02*
G37*
%LPC*%
G36*
X309800Y496000D02*
X299400D01*
Y495200D01*
Y494400D01*
X309000D01*
Y495200D01*
X309800D01*
Y496000D01*
D02*
G37*
G36*
X312200D02*
X311400D01*
Y495200D01*
X310600D01*
Y494400D01*
X309800D01*
Y493600D01*
X309000D01*
Y492800D01*
Y492000D01*
Y491200D01*
Y490400D01*
Y489600D01*
Y488800D01*
Y488000D01*
Y487200D01*
Y486400D01*
Y485600D01*
Y484800D01*
Y484000D01*
Y483200D01*
Y482400D01*
Y481600D01*
X312200D01*
Y482400D01*
Y483200D01*
Y484000D01*
Y484800D01*
Y485600D01*
Y486400D01*
Y487200D01*
Y488000D01*
Y488800D01*
Y489600D01*
Y490400D01*
Y491200D01*
Y492000D01*
Y492800D01*
Y493600D01*
Y494400D01*
Y495200D01*
Y496000D01*
D02*
G37*
G36*
X308200Y492800D02*
X299400D01*
Y492000D01*
Y491200D01*
Y490400D01*
Y489600D01*
Y488800D01*
Y488000D01*
Y487200D01*
Y486400D01*
Y485600D01*
Y484800D01*
Y484000D01*
Y483200D01*
Y482400D01*
Y481600D01*
X308200D01*
Y482400D01*
Y483200D01*
Y484000D01*
Y484800D01*
Y485600D01*
Y486400D01*
Y487200D01*
Y488000D01*
Y488800D01*
Y489600D01*
Y490400D01*
Y491200D01*
Y492000D01*
Y492800D01*
D02*
G37*
G36*
X298600D02*
X295400D01*
Y492000D01*
Y491200D01*
Y490400D01*
Y489600D01*
Y488800D01*
Y488000D01*
Y487200D01*
Y486400D01*
Y485600D01*
Y484800D01*
Y484000D01*
Y483200D01*
Y482400D01*
Y481600D01*
Y480800D01*
Y480000D01*
Y479200D01*
X296200D01*
Y480000D01*
X297000D01*
Y480800D01*
X297800D01*
Y481600D01*
X298600D01*
Y482400D01*
Y483200D01*
Y484000D01*
Y484800D01*
Y485600D01*
Y486400D01*
Y487200D01*
Y488000D01*
Y488800D01*
Y489600D01*
Y490400D01*
Y491200D01*
Y492000D01*
Y492800D01*
D02*
G37*
G36*
X308200Y480800D02*
X298600D01*
Y480000D01*
X297800D01*
Y479200D01*
X297000D01*
Y478400D01*
X308200D01*
Y479200D01*
Y480000D01*
Y480800D01*
D02*
G37*
%LPD*%
D10*
X279862Y314669D02*
G03*
X279862Y314669I-492J0D01*
G01*
X179480Y333583D02*
G03*
X179480Y333583I-492J0D01*
G01*
D11*
X163594Y458445D02*
G03*
X163594Y458445I-984J0D01*
G01*
X222650Y393976D02*
X230524D01*
Y395945D01*
X167532Y393976D02*
X175406D01*
X167532D02*
Y395945D01*
X230524Y458937D02*
Y488465D01*
X167532D02*
X230524D01*
X167532Y458937D02*
Y488465D01*
X175406Y398858D02*
Y457913D01*
Y398858D02*
X222650D01*
Y457913D01*
X175406D02*
X222650D01*
D12*
X177413Y323937D02*
G03*
X177413Y323937I-1181J0D01*
G01*
D13*
X131697Y440965D02*
G03*
X130909Y440965I-394J0D01*
G01*
D02*
G03*
X131697Y440965I394J0D01*
G01*
X239791Y467087D02*
G03*
X239791Y467874I0J394D01*
G01*
D02*
G03*
X239791Y467087I0J-394D01*
G01*
X216968Y303441D02*
G03*
X216968Y303441I-256J0D01*
G01*
X200468D02*
G03*
X200468Y303441I-256J0D01*
G01*
X118025Y286331D02*
G03*
X118025Y286331I-181J0D01*
G01*
X309780Y377394D02*
G03*
X309780Y376606I0J-394D01*
G01*
D02*
G03*
X309780Y377394I0J394D01*
G01*
X194705Y329000D02*
X201102D01*
X213898D02*
X220295D01*
X194705Y315000D02*
Y329000D01*
X201102D02*
X213898D01*
X220295Y315000D02*
Y329000D01*
X194705Y315000D02*
X220295D01*
X194000Y307079D02*
Y312000D01*
X138831Y327874D02*
X180169D01*
X138831Y312126D02*
X180169D01*
Y327874D01*
X138831Y312126D02*
Y327874D01*
X207520Y379500D02*
X210866D01*
X212283Y370563D02*
Y378437D01*
Y370563D02*
X214449D01*
Y378437D01*
X212283D02*
X214449D01*
X188366Y370000D02*
X191713D01*
X186949Y371063D02*
Y378937D01*
X184783D02*
X186949D01*
X184783Y371063D02*
Y378937D01*
Y371063D02*
X186949D01*
X245618Y343079D02*
Y344654D01*
X248374Y343079D02*
Y344654D01*
X244122Y441713D02*
Y443287D01*
X246878Y441713D02*
Y443287D01*
X269122Y425213D02*
Y426787D01*
X271878Y425213D02*
Y426787D01*
X243260Y400878D02*
X244835D01*
X243260Y398122D02*
X244835D01*
X115665Y412122D02*
X117240D01*
X115665Y414878D02*
X117240D01*
X115665Y397622D02*
X117240D01*
X115665Y400378D02*
X117240D01*
X115713Y383122D02*
X117287D01*
X115713Y385878D02*
X117287D01*
X115713Y368622D02*
X117287D01*
X115713Y371378D02*
X117287D01*
X115665Y354622D02*
X117240D01*
X115665Y357378D02*
X117240D01*
X115713Y426122D02*
X117287D01*
X115713Y428878D02*
X117287D01*
X246878Y454760D02*
Y456335D01*
X244122Y454760D02*
Y456335D01*
X152878Y468713D02*
Y470287D01*
X150122Y468713D02*
Y470287D01*
X243213Y421622D02*
X244787D01*
X243213Y424378D02*
X244787D01*
X243260Y414122D02*
X244835D01*
X243260Y416878D02*
X244835D01*
X243260Y406122D02*
X244835D01*
X243260Y408878D02*
X244835D01*
X198760Y376181D02*
X200335D01*
X198760Y378937D02*
X200335D01*
X155760Y440378D02*
X157335D01*
X155760Y437622D02*
X157335D01*
X198713Y370622D02*
X200287D01*
X198713Y373378D02*
X200287D01*
X155760Y456378D02*
X157335D01*
X155760Y453622D02*
X157335D01*
X219213Y362622D02*
X220787D01*
X219213Y365378D02*
X220787D01*
X111622Y331713D02*
Y333287D01*
X114378Y331713D02*
Y333287D01*
X111622Y312665D02*
Y314240D01*
X114378Y312665D02*
Y314240D01*
X154260Y290213D02*
Y291787D01*
X157016Y290213D02*
Y291787D01*
X164622Y349713D02*
Y351287D01*
X167378Y349713D02*
Y351287D01*
X184622Y347713D02*
Y349287D01*
X187378Y347713D02*
Y349287D01*
X231996Y326819D02*
Y336819D01*
X311996D01*
Y326819D02*
Y336819D01*
X231996Y326819D02*
X311996D01*
X282000Y458500D02*
X292000D01*
Y418500D02*
Y458500D01*
X282000Y418500D02*
Y458500D01*
Y418500D02*
X292000D01*
X197500Y350500D02*
Y360500D01*
X217500D01*
Y350500D02*
Y360500D01*
X197500Y350500D02*
X217500D01*
X212500Y265000D02*
Y275000D01*
X232500D01*
Y265000D02*
Y275000D01*
X212500Y265000D02*
X232500D01*
X210000Y282878D02*
Y297839D01*
X224000Y282878D02*
Y297839D01*
X193500Y282878D02*
Y297839D01*
X207500Y282878D02*
Y297839D01*
X109270Y263535D02*
X138797D01*
X109270Y276815D02*
Y283221D01*
X138797Y276815D02*
Y283221D01*
X247736Y295366D02*
X250886D01*
X247736Y301272D02*
X250886D01*
X247606Y312366D02*
X250756D01*
X247606Y318272D02*
X250756D01*
X269528Y283429D02*
Y286579D01*
X263622Y283429D02*
Y286579D01*
X289421Y305272D02*
X292571D01*
X289421Y299366D02*
X292571D01*
X149281Y446425D02*
Y449575D01*
X143376Y446425D02*
Y449575D01*
X159453Y392925D02*
Y396075D01*
X153547Y392925D02*
Y396075D01*
X205610Y341547D02*
X208760D01*
X205610Y347453D02*
X208760D01*
X184547Y302925D02*
Y306075D01*
X190453Y302925D02*
Y306075D01*
X151496Y289425D02*
Y292575D01*
X145591Y289425D02*
Y292575D01*
X184547Y327240D02*
Y330390D01*
X190453Y327240D02*
Y330390D01*
X165496Y289425D02*
Y292575D01*
X159591Y289425D02*
Y292575D01*
D14*
X155457Y478382D02*
G03*
X155457Y478382I-142J0D01*
G01*
X138008Y409248D02*
G03*
X138008Y409248I-142J0D01*
G01*
Y394748D02*
G03*
X138008Y394748I-142J0D01*
G01*
Y380248D02*
G03*
X138008Y380248I-142J0D01*
G01*
Y365882D02*
G03*
X138008Y365882I-142J0D01*
G01*
Y351516D02*
G03*
X138008Y351516I-142J0D01*
G01*
Y423516D02*
G03*
X138008Y423516I-142J0D01*
G01*
X226327Y363618D02*
G03*
X226327Y363618I-142J0D01*
G01*
X118374Y329118D02*
G03*
X118374Y329118I-142J0D01*
G01*
X117559Y310437D02*
G03*
X117559Y310437I-142J0D01*
G01*
X298796Y280500D02*
G03*
X298796Y280500I-1799J0D01*
G01*
X149784Y481713D02*
Y483287D01*
X144665Y488406D02*
X147224D01*
X144665Y476594D02*
X147224D01*
X132335Y412579D02*
Y414153D01*
X127216Y419272D02*
X129776D01*
X127216Y407461D02*
X129776D01*
X132335Y398079D02*
Y399654D01*
X127216Y404772D02*
X129776D01*
X127216Y392961D02*
X129776D01*
X132335Y383579D02*
Y385154D01*
X127216Y390272D02*
X129776D01*
X127216Y378461D02*
X129776D01*
X132335Y369213D02*
Y370787D01*
X127216Y375905D02*
X129776D01*
X127216Y364094D02*
X129776D01*
X132335Y354847D02*
Y356421D01*
X127216Y361539D02*
X129776D01*
X127216Y349728D02*
X129776D01*
X132335Y426847D02*
Y428421D01*
X127216Y433539D02*
X129776D01*
X127216Y421728D02*
X129776D01*
X231716Y358713D02*
Y360287D01*
X234276Y353594D02*
X236835D01*
X234276Y365406D02*
X236835D01*
X123764Y324213D02*
Y325787D01*
X126323Y319094D02*
X128882D01*
X126323Y330906D02*
X128882D01*
X122949Y305532D02*
Y307106D01*
X125508Y300413D02*
X128067D01*
X125508Y312224D02*
X128067D01*
X312000Y282000D02*
X313500Y280500D01*
X312000Y279000D02*
X313500Y280500D01*
X297004Y265004D02*
X298500Y266500D01*
X296996Y265004D02*
X297004D01*
X295500Y266500D02*
X296996Y265004D01*
Y265000D02*
Y265004D01*
Y265000D02*
Y280500D01*
X313500D01*
X231000Y369500D02*
Y375498D01*
X233999D01*
X234999Y374498D01*
Y372499D01*
X233999Y371499D01*
X231000D01*
X236998Y375498D02*
Y369500D01*
X238997Y371499D01*
X240997Y369500D01*
Y375498D01*
X242996Y369500D02*
Y375498D01*
X245995D01*
X246995Y374498D01*
Y372499D01*
X245995Y371499D01*
X242996D01*
X244995D02*
X246995Y369500D01*
X104000Y299500D02*
Y305498D01*
X106999D01*
X107999Y304498D01*
Y302499D01*
X106999Y301499D01*
X104000D01*
X105999D02*
X107999Y299500D01*
X109998Y305498D02*
X113997Y299500D01*
Y305498D02*
X109998Y299500D01*
X120000Y339998D02*
X123999D01*
X121999D01*
Y334000D01*
X125998Y339998D02*
X129997Y334000D01*
Y339998D02*
X125998Y334000D01*
X115500Y490000D02*
Y495998D01*
X118499D01*
X119499Y494998D01*
Y492999D01*
X118499Y491999D01*
X115500D01*
X117499D02*
X119499Y490000D01*
X125497Y494998D02*
X124497Y495998D01*
X122498D01*
X121498Y494998D01*
Y493999D01*
X122498Y492999D01*
X124497D01*
X125497Y491999D01*
Y491000D01*
X124497Y490000D01*
X122498D01*
X121498Y491000D01*
X127496Y495998D02*
X131495D01*
X129496D01*
Y490000D01*
X252500Y491600D02*
Y497598D01*
X255499D01*
X256499Y496598D01*
Y494599D01*
X255499Y493599D01*
X252500D01*
X258498Y491600D02*
Y497598D01*
X261497D01*
X262497Y496598D01*
Y494599D01*
X261497Y493599D01*
X258498D01*
X260497D02*
X262497Y491600D01*
X267495Y497598D02*
X265496D01*
X264496Y496598D01*
Y492600D01*
X265496Y491600D01*
X267495D01*
X268495Y492600D01*
Y496598D01*
X267495Y497598D01*
X274493Y496598D02*
X273493Y497598D01*
X271494D01*
X270494Y496598D01*
Y492600D01*
X271494Y491600D01*
X273493D01*
X274493Y492600D01*
Y494599D01*
X272494D01*
X300000Y288876D02*
X303999D01*
Y287876D01*
X300000Y283878D01*
Y282878D01*
X303999D01*
X312000Y289218D02*
Y288219D01*
X313999Y286220D01*
X315999Y288219D01*
Y289218D01*
X313999Y286220D02*
Y283221D01*
X290000Y271002D02*
X293999Y265004D01*
Y271002D02*
X290000Y265004D01*
X309002Y408999D02*
X308002Y407999D01*
Y406000D01*
X309002Y405000D01*
X313000D01*
X314000Y406000D01*
Y407999D01*
X313000Y408999D01*
X311001D01*
Y406999D01*
X310001Y411998D02*
Y413997D01*
X311001Y414997D01*
X314000D01*
Y411998D01*
X313000Y410998D01*
X312001Y411998D01*
Y414997D01*
X308002Y416996D02*
X314000D01*
Y419995D01*
X313000Y420995D01*
X312001D01*
X311001D01*
X310001Y419995D01*
Y416996D01*
Y422994D02*
X314000D01*
X312001D01*
X311001Y423994D01*
X310001Y424994D01*
Y425993D01*
X314000Y428992D02*
Y430992D01*
Y429992D01*
X310001D01*
Y428992D01*
X314000Y436990D02*
Y434990D01*
X313000Y433991D01*
X311001D01*
X310001Y434990D01*
Y436990D01*
X311001Y437989D01*
X312001D01*
Y433991D01*
X314000Y439989D02*
Y441988D01*
Y440988D01*
X308002D01*
Y439989D01*
X314000Y454984D02*
X313000Y453984D01*
X314000Y452985D01*
Y451985D01*
X313000Y450985D01*
X312001D01*
X311001Y451985D01*
X310001Y450985D01*
X309002D01*
X308002Y451985D01*
Y452985D01*
X309002Y453984D01*
X310001D01*
X311001Y452985D01*
X312001Y453984D01*
X313000D01*
X311001Y454984D02*
X312001Y453984D01*
X311001Y451985D02*
Y452985D01*
X308002Y466980D02*
Y464981D01*
Y465980D01*
X313000D01*
X314000Y464981D01*
Y463981D01*
X313000Y462981D01*
X309002Y472978D02*
X308002Y471978D01*
Y469979D01*
X309002Y468979D01*
X313000D01*
X314000Y469979D01*
Y471978D01*
X313000Y472978D01*
X181999Y497998D02*
X178000D01*
Y492000D01*
X181999D01*
X178000Y494999D02*
X179999D01*
X187997Y496998D02*
X186997Y497998D01*
X184998D01*
X183998Y496998D01*
Y493000D01*
X184998Y492000D01*
X186997D01*
X187997Y493000D01*
X189996Y497998D02*
Y493000D01*
X190996Y492000D01*
X192995D01*
X193995Y493000D01*
Y497998D01*
X195994D02*
Y492000D01*
X198993D01*
X199993Y493000D01*
Y493999D01*
X198993Y494999D01*
X195994D01*
X198993D01*
X199993Y495999D01*
Y496998D01*
X198993Y497998D01*
X195994D01*
X205991D02*
X201992D01*
Y492000D01*
X205991D01*
X201992Y494999D02*
X203992D01*
X207990Y492000D02*
X209990D01*
X208990D01*
Y497998D01*
X207990D01*
X213988Y495999D02*
X215988D01*
X216987Y494999D01*
Y492000D01*
X213988D01*
X212989Y493000D01*
X213988Y493999D01*
X216987D01*
X218987Y497998D02*
Y492000D01*
X221986D01*
X222985Y493000D01*
Y493999D01*
Y494999D01*
X221986Y495999D01*
X218987D01*
X261500Y321998D02*
Y317000D01*
X262500Y316000D01*
X264499D01*
X265499Y317000D01*
Y321998D01*
X270497Y316000D02*
Y321998D01*
X267498Y318999D01*
X271497D01*
X221500Y312998D02*
Y308000D01*
X222500Y307000D01*
X224499D01*
X225499Y308000D01*
Y312998D01*
X231497Y307000D02*
X227498D01*
X231497Y310999D01*
Y311998D01*
X230497Y312998D01*
X228498D01*
X227498Y311998D01*
X146000Y346498D02*
Y341500D01*
X147000Y340500D01*
X148999D01*
X149999Y341500D01*
Y346498D01*
X151998Y340500D02*
X153997D01*
X152998D01*
Y346498D01*
X151998Y345498D01*
X218500Y384998D02*
X222499D01*
X220499D01*
Y379000D01*
X228497D02*
X224498D01*
X228497Y382999D01*
Y383998D01*
X227497Y384998D01*
X225498D01*
X224498Y383998D01*
X171000Y369998D02*
X174999D01*
X172999D01*
Y364000D01*
X176998D02*
X178997D01*
X177998D01*
Y369998D01*
X176998Y368998D01*
X257500Y340000D02*
X251502D01*
Y342999D01*
X252502Y343999D01*
X254501D01*
X255501Y342999D01*
Y340000D01*
Y341999D02*
X257500Y343999D01*
Y349997D02*
Y345998D01*
X253501Y349997D01*
X252502D01*
X251502Y348997D01*
Y346998D01*
X252502Y345998D01*
X251502Y355995D02*
Y351996D01*
X254501D01*
X253501Y353995D01*
Y354995D01*
X254501Y355995D01*
X256500D01*
X257500Y354995D01*
Y352996D01*
X256500Y351996D01*
X249500Y440000D02*
Y445998D01*
X252499D01*
X253499Y444998D01*
Y442999D01*
X252499Y441999D01*
X249500D01*
X251499D02*
X253499Y440000D01*
X259497D02*
X255498D01*
X259497Y443999D01*
Y444998D01*
X258497Y445998D01*
X256498D01*
X255498Y444998D01*
X264495Y440000D02*
Y445998D01*
X261496Y442999D01*
X265495D01*
X280500Y420500D02*
X274502D01*
Y423499D01*
X275502Y424499D01*
X277501D01*
X278501Y423499D01*
Y420500D01*
Y422499D02*
X280500Y424499D01*
Y430497D02*
Y426498D01*
X276501Y430497D01*
X275502D01*
X274502Y429497D01*
Y427498D01*
X275502Y426498D01*
Y432496D02*
X274502Y433496D01*
Y435495D01*
X275502Y436495D01*
X276501D01*
X277501Y435495D01*
Y434495D01*
Y435495D01*
X278501Y436495D01*
X279500D01*
X280500Y435495D01*
Y433496D01*
X279500Y432496D01*
X257500Y394500D02*
Y400498D01*
X260499D01*
X261499Y399498D01*
Y397499D01*
X260499Y396499D01*
X257500D01*
X259499D02*
X261499Y394500D01*
X267497D02*
X263498D01*
X267497Y398499D01*
Y399498D01*
X266497Y400498D01*
X264498D01*
X263498Y399498D01*
X273495Y394500D02*
X269496D01*
X273495Y398499D01*
Y399498D01*
X272495Y400498D01*
X270496D01*
X269496Y399498D01*
X103500Y417500D02*
Y423498D01*
X106499D01*
X107499Y422498D01*
Y420499D01*
X106499Y419499D01*
X103500D01*
X105499D02*
X107499Y417500D01*
X113497D02*
X109498D01*
X113497Y421499D01*
Y422498D01*
X112497Y423498D01*
X110498D01*
X109498Y422498D01*
X115496Y417500D02*
X117496D01*
X116496D01*
Y423498D01*
X115496Y422498D01*
X102500Y403000D02*
Y408998D01*
X105499D01*
X106499Y407998D01*
Y405999D01*
X105499Y404999D01*
X102500D01*
X104499D02*
X106499Y403000D01*
X112497D02*
X108498D01*
X112497Y406999D01*
Y407998D01*
X111497Y408998D01*
X109498D01*
X108498Y407998D01*
X114496D02*
X115496Y408998D01*
X117495D01*
X118495Y407998D01*
Y404000D01*
X117495Y403000D01*
X115496D01*
X114496Y404000D01*
Y407998D01*
X103000Y388500D02*
Y394498D01*
X105999D01*
X106999Y393498D01*
Y391499D01*
X105999Y390499D01*
X103000D01*
X104999D02*
X106999Y388500D01*
X108998D02*
X110997D01*
X109998D01*
Y394498D01*
X108998Y393498D01*
X113996Y389500D02*
X114996Y388500D01*
X116996D01*
X117995Y389500D01*
Y393498D01*
X116996Y394498D01*
X114996D01*
X113996Y393498D01*
Y392499D01*
X114996Y391499D01*
X117995D01*
X103000Y374134D02*
Y380132D01*
X105999D01*
X106999Y379132D01*
Y377133D01*
X105999Y376133D01*
X103000D01*
X104999D02*
X106999Y374134D01*
X108998D02*
X110997D01*
X109998D01*
Y380132D01*
X108998Y379132D01*
X113996D02*
X114996Y380132D01*
X116996D01*
X117995Y379132D01*
Y378133D01*
X116996Y377133D01*
X117995Y376133D01*
Y375133D01*
X116996Y374134D01*
X114996D01*
X113996Y375133D01*
Y376133D01*
X114996Y377133D01*
X113996Y378133D01*
Y379132D01*
X114996Y377133D02*
X116996D01*
X103000Y359157D02*
Y365155D01*
X105999D01*
X106999Y364155D01*
Y362156D01*
X105999Y361156D01*
X103000D01*
X104999D02*
X106999Y359157D01*
X108998D02*
X110997D01*
X109998D01*
Y365155D01*
X108998Y364155D01*
X113996Y365155D02*
X117995D01*
Y364155D01*
X113996Y360156D01*
Y359157D01*
X104500Y431378D02*
Y437376D01*
X107499D01*
X108499Y436376D01*
Y434377D01*
X107499Y433377D01*
X104500D01*
X106499D02*
X108499Y431378D01*
X110498D02*
X112497D01*
X111498D01*
Y437376D01*
X110498Y436376D01*
X119495Y437376D02*
X117496Y436376D01*
X115496Y434377D01*
Y432378D01*
X116496Y431378D01*
X118496D01*
X119495Y432378D01*
Y433377D01*
X118496Y434377D01*
X115496D01*
X250000Y452500D02*
Y458498D01*
X252999D01*
X253999Y457498D01*
Y455499D01*
X252999Y454499D01*
X250000D01*
X251999D02*
X253999Y452500D01*
X255998D02*
X257997D01*
X256998D01*
Y458498D01*
X255998Y457498D01*
X264995Y458498D02*
X260996D01*
Y455499D01*
X262996Y456499D01*
X263996D01*
X264995Y455499D01*
Y453500D01*
X263996Y452500D01*
X261996D01*
X260996Y453500D01*
X134000Y466500D02*
Y472498D01*
X136999D01*
X137999Y471498D01*
Y469499D01*
X136999Y468499D01*
X134000D01*
X135999D02*
X137999Y466500D01*
X139998D02*
X141997D01*
X140998D01*
Y472498D01*
X139998Y471498D01*
X147995Y466500D02*
Y472498D01*
X144996Y469499D01*
X148995D01*
X235500Y426787D02*
Y432786D01*
X238499D01*
X239499Y431786D01*
Y429786D01*
X238499Y428787D01*
X235500D01*
X237499D02*
X239499Y426787D01*
X241498D02*
X243497D01*
X242498D01*
Y432786D01*
X241498Y431786D01*
X246496D02*
X247496Y432786D01*
X249496D01*
X250495Y431786D01*
Y430786D01*
X249496Y429786D01*
X248496D01*
X249496D01*
X250495Y428787D01*
Y427787D01*
X249496Y426787D01*
X247496D01*
X246496Y427787D01*
X257500Y412500D02*
Y418498D01*
X260499D01*
X261499Y417498D01*
Y415499D01*
X260499Y414499D01*
X257500D01*
X259499D02*
X261499Y412500D01*
X263498D02*
X265497D01*
X264498D01*
Y418498D01*
X263498Y417498D01*
X272495Y412500D02*
X268496D01*
X272495Y416499D01*
Y417498D01*
X271496Y418498D01*
X269496D01*
X268496Y417498D01*
X257500Y403500D02*
Y409498D01*
X260499D01*
X261499Y408498D01*
Y406499D01*
X260499Y405499D01*
X257500D01*
X259499D02*
X261499Y403500D01*
X263498D02*
X265497D01*
X264498D01*
Y409498D01*
X263498Y408498D01*
X268496Y403500D02*
X270496D01*
X269496D01*
Y409498D01*
X268496Y408498D01*
X193000Y381500D02*
Y387498D01*
X195999D01*
X196999Y386498D01*
Y384499D01*
X195999Y383499D01*
X193000D01*
X194999D02*
X196999Y381500D01*
X198998D02*
X200997D01*
X199998D01*
Y387498D01*
X198998Y386498D01*
X203996D02*
X204996Y387498D01*
X206996D01*
X207995Y386498D01*
Y382500D01*
X206996Y381500D01*
X204996D01*
X203996Y382500D01*
Y386498D01*
X153000Y443000D02*
Y448998D01*
X155999D01*
X156999Y447998D01*
Y445999D01*
X155999Y444999D01*
X153000D01*
X154999D02*
X156999Y443000D01*
X158998Y444000D02*
X159998Y443000D01*
X161997D01*
X162997Y444000D01*
Y447998D01*
X161997Y448998D01*
X159998D01*
X158998Y447998D01*
Y446999D01*
X159998Y445999D01*
X162997D01*
X189000Y362500D02*
Y368498D01*
X191999D01*
X192999Y367498D01*
Y365499D01*
X191999Y364499D01*
X189000D01*
X190999D02*
X192999Y362500D01*
X194998Y367498D02*
X195998Y368498D01*
X197997D01*
X198997Y367498D01*
Y366499D01*
X197997Y365499D01*
X198997Y364499D01*
Y363500D01*
X197997Y362500D01*
X195998D01*
X194998Y363500D01*
Y364499D01*
X195998Y365499D01*
X194998Y366499D01*
Y367498D01*
X195998Y365499D02*
X197997D01*
X153500Y458445D02*
Y464443D01*
X156499D01*
X157499Y463443D01*
Y461444D01*
X156499Y460444D01*
X153500D01*
X155499D02*
X157499Y458445D01*
X159498Y464443D02*
X163497D01*
Y463443D01*
X159498Y459445D01*
Y458445D01*
X204500Y362622D02*
Y368620D01*
X207499D01*
X208499Y367620D01*
Y365621D01*
X207499Y364621D01*
X204500D01*
X206499D02*
X208499Y362622D01*
X214497Y368620D02*
X212497Y367620D01*
X210498Y365621D01*
Y363622D01*
X211498Y362622D01*
X213497D01*
X214497Y363622D01*
Y364621D01*
X213497Y365621D01*
X210498D01*
X109500Y327240D02*
X103502D01*
Y330239D01*
X104502Y331239D01*
X106501D01*
X107501Y330239D01*
Y327240D01*
Y329240D02*
X109500Y331239D01*
X103502Y337237D02*
Y333238D01*
X106501D01*
X105501Y335238D01*
Y336237D01*
X106501Y337237D01*
X108500D01*
X109500Y336237D01*
Y334238D01*
X108500Y333238D01*
X110000Y309000D02*
X104002D01*
Y311999D01*
X105002Y312999D01*
X107001D01*
X108001Y311999D01*
Y309000D01*
Y310999D02*
X110000Y312999D01*
Y317997D02*
X104002D01*
X107001Y314998D01*
Y318997D01*
X151496Y268500D02*
Y274498D01*
X154495D01*
X155495Y273498D01*
Y271499D01*
X154495Y270499D01*
X151496D01*
X153495D02*
X155495Y268500D01*
X157494Y273498D02*
X158494Y274498D01*
X160493D01*
X161493Y273498D01*
Y272499D01*
X160493Y271499D01*
X159494D01*
X160493D01*
X161493Y270499D01*
Y269500D01*
X160493Y268500D01*
X158494D01*
X157494Y269500D01*
X162102Y347000D02*
X156104D01*
Y349999D01*
X157104Y350999D01*
X159103D01*
X160103Y349999D01*
Y347000D01*
Y348999D02*
X162102Y350999D01*
Y356997D02*
Y352998D01*
X158104Y356997D01*
X157104D01*
X156104Y355997D01*
Y353998D01*
X157104Y352998D01*
X195500Y346000D02*
X189502D01*
Y348999D01*
X190502Y349999D01*
X192501D01*
X193501Y348999D01*
Y346000D01*
Y347999D02*
X195500Y349999D01*
Y351998D02*
Y353997D01*
Y352998D01*
X189502D01*
X190502Y351998D01*
X315000Y315000D02*
X309002D01*
Y317999D01*
X310002Y318999D01*
X312001D01*
X313001Y317999D01*
Y315000D01*
X309002Y320998D02*
Y324997D01*
X310002D01*
X314000Y320998D01*
X315000D01*
X280000Y411000D02*
Y416998D01*
X282999D01*
X283999Y415998D01*
Y413999D01*
X282999Y412999D01*
X280000D01*
X289997Y416998D02*
X287997Y415998D01*
X285998Y413999D01*
Y412000D01*
X286998Y411000D01*
X288997D01*
X289997Y412000D01*
Y412999D01*
X288997Y413999D01*
X285998D01*
X225000Y350500D02*
X219002D01*
Y353499D01*
X220002Y354499D01*
X222001D01*
X223001Y353499D01*
Y350500D01*
X225000Y360497D02*
Y356498D01*
X221001Y360497D01*
X220002D01*
X219002Y359497D01*
Y357498D01*
X220002Y356498D01*
X201870Y271500D02*
Y277498D01*
X204869D01*
X205869Y276498D01*
Y274499D01*
X204869Y273499D01*
X201870D01*
X207868Y271500D02*
X209868D01*
X208868D01*
Y277498D01*
X207868Y276498D01*
X140500Y497498D02*
Y491500D01*
X144499D01*
X146498D02*
X148497D01*
X147498D01*
Y497498D01*
X146498Y496498D01*
X151496D02*
X152496Y497498D01*
X154496D01*
X155495Y496498D01*
Y492500D01*
X154496Y491500D01*
X152496D01*
X151496Y492500D01*
Y496498D01*
X139500Y414998D02*
Y409000D01*
X143499D01*
X145498Y410000D02*
X146498Y409000D01*
X148497D01*
X149497Y410000D01*
Y413998D01*
X148497Y414998D01*
X146498D01*
X145498Y413998D01*
Y412999D01*
X146498Y411999D01*
X149497D01*
X139500Y405498D02*
Y399500D01*
X143499D01*
X145498Y404498D02*
X146498Y405498D01*
X148497D01*
X149497Y404498D01*
Y403499D01*
X148497Y402499D01*
X149497Y401499D01*
Y400500D01*
X148497Y399500D01*
X146498D01*
X145498Y400500D01*
Y401499D01*
X146498Y402499D01*
X145498Y403499D01*
Y404498D01*
X146498Y402499D02*
X148497D01*
X140500Y388998D02*
Y383000D01*
X144499D01*
X146498Y388998D02*
X150497D01*
Y387998D01*
X146498Y384000D01*
Y383000D01*
X140000Y374498D02*
Y368500D01*
X143999D01*
X149997Y374498D02*
X147997Y373498D01*
X145998Y371499D01*
Y369500D01*
X146998Y368500D01*
X148997D01*
X149997Y369500D01*
Y370499D01*
X148997Y371499D01*
X145998D01*
X140500Y360998D02*
Y355000D01*
X144499D01*
X150497Y360998D02*
X146498D01*
Y357999D01*
X148497Y358999D01*
X149497D01*
X150497Y357999D01*
Y356000D01*
X149497Y355000D01*
X147498D01*
X146498Y356000D01*
X139732Y427998D02*
Y422000D01*
X143731D01*
X148729D02*
Y427998D01*
X145730Y424999D01*
X149729D01*
X225500Y289218D02*
Y283221D01*
X228499D01*
X229499Y284220D01*
Y288219D01*
X228499Y289218D01*
X225500D01*
X235497Y283221D02*
X231498D01*
X235497Y287219D01*
Y288219D01*
X234497Y289218D01*
X232498D01*
X231498Y288219D01*
X183500Y288876D02*
Y282878D01*
X186499D01*
X187499Y283878D01*
Y287876D01*
X186499Y288876D01*
X183500D01*
X189498Y282878D02*
X191497D01*
X190498D01*
Y288876D01*
X189498Y287876D01*
X107999Y293998D02*
X106999Y294998D01*
X105000D01*
X104000Y293998D01*
Y290000D01*
X105000Y289000D01*
X106999D01*
X107999Y290000D01*
X109998Y289000D02*
Y294998D01*
X113997Y289000D01*
Y294998D01*
X115996Y289000D02*
X117996D01*
X116996D01*
Y294998D01*
X115996Y293998D01*
X247498Y287501D02*
X248498Y288501D01*
Y290500D01*
X247498Y291500D01*
X243500D01*
X242500Y290500D01*
Y288501D01*
X243500Y287501D01*
X242500Y285502D02*
Y283503D01*
Y284502D01*
X248498D01*
X247498Y285502D01*
X242500Y280504D02*
Y278504D01*
Y279504D01*
X248498D01*
X247498Y280504D01*
X245999Y324998D02*
X244999Y325998D01*
X243000D01*
X242000Y324998D01*
Y321000D01*
X243000Y320000D01*
X244999D01*
X245999Y321000D01*
X247998Y320000D02*
X249997D01*
X248998D01*
Y325998D01*
X247998Y324998D01*
X252996D02*
X253996Y325998D01*
X255995D01*
X256995Y324998D01*
Y321000D01*
X255995Y320000D01*
X253996D01*
X252996Y321000D01*
Y324998D01*
X282495Y281817D02*
X281495Y282817D01*
X279496D01*
X278496Y281817D01*
Y277819D01*
X279496Y276819D01*
X281495D01*
X282495Y277819D01*
X284494D02*
X285494Y276819D01*
X287493D01*
X288493Y277819D01*
Y281817D01*
X287493Y282817D01*
X285494D01*
X284494Y281817D01*
Y280818D01*
X285494Y279818D01*
X288493D01*
X293499Y312077D02*
X292499Y313077D01*
X290500D01*
X289500Y312077D01*
Y308078D01*
X290500Y307079D01*
X292499D01*
X293499Y308078D01*
X295498Y312077D02*
X296498Y313077D01*
X298497D01*
X299497Y312077D01*
Y311077D01*
X298497Y310078D01*
X299497Y309078D01*
Y308078D01*
X298497Y307079D01*
X296498D01*
X295498Y308078D01*
Y309078D01*
X296498Y310078D01*
X295498Y311077D01*
Y312077D01*
X296498Y310078D02*
X298497D01*
X136502Y446999D02*
X135502Y445999D01*
Y444000D01*
X136502Y443000D01*
X140500D01*
X141500Y444000D01*
Y445999D01*
X140500Y446999D01*
X135502Y448998D02*
Y452997D01*
X136502D01*
X140500Y448998D01*
X141500D01*
X166499Y388498D02*
X165499Y389498D01*
X163500D01*
X162500Y388498D01*
Y384500D01*
X163500Y383500D01*
X165499D01*
X166499Y384500D01*
X172497Y389498D02*
X170497Y388498D01*
X168498Y386499D01*
Y384500D01*
X169498Y383500D01*
X171497D01*
X172497Y384500D01*
Y385499D01*
X171497Y386499D01*
X168498D01*
X224002Y341999D02*
X223002Y340999D01*
Y339000D01*
X224002Y338000D01*
X228000D01*
X229000Y339000D01*
Y340999D01*
X228000Y341999D01*
X223002Y347997D02*
Y343998D01*
X226001D01*
X225001Y345997D01*
Y346997D01*
X226001Y347997D01*
X228000D01*
X229000Y346997D01*
Y344998D01*
X228000Y343998D01*
X185999Y318998D02*
X184999Y319998D01*
X183000D01*
X182000Y318998D01*
Y315000D01*
X183000Y314000D01*
X184999D01*
X185999Y315000D01*
X190997Y314000D02*
Y319998D01*
X187998Y316999D01*
X191997D01*
X138002Y289999D02*
X137002Y288999D01*
Y287000D01*
X138002Y286000D01*
X142000D01*
X143000Y287000D01*
Y288999D01*
X142000Y289999D01*
X138002Y291998D02*
X137002Y292998D01*
Y294997D01*
X138002Y295997D01*
X139001D01*
X140001Y294997D01*
Y293997D01*
Y294997D01*
X141001Y295997D01*
X142000D01*
X143000Y294997D01*
Y292998D01*
X142000Y291998D01*
X182499Y341998D02*
X181499Y342998D01*
X179500D01*
X178500Y341998D01*
Y338000D01*
X179500Y337000D01*
X181499D01*
X182499Y338000D01*
X188497Y337000D02*
X184498D01*
X188497Y340999D01*
Y341998D01*
X187497Y342998D01*
X185498D01*
X184498Y341998D01*
X168502Y290577D02*
X167502Y289578D01*
Y287578D01*
X168502Y286579D01*
X172500D01*
X173500Y287578D01*
Y289578D01*
X172500Y290577D01*
X173500Y292577D02*
Y294576D01*
Y293577D01*
X167502D01*
X168502Y292577D01*
D15*
X260173Y377000D02*
G03*
X307417Y377000I23622J0D01*
G01*
D02*
G03*
X260173Y377000I-23622J0D01*
G01*
X134453Y452776D02*
Y476398D01*
X110831D02*
X134453D01*
X110831Y452776D02*
Y476398D01*
Y452776D02*
X134453D01*
X251602Y464331D02*
X275224D01*
Y487953D01*
X251602D02*
X275224D01*
X251602Y464331D02*
Y487953D01*
X253795Y365189D02*
X263520D01*
X253087D02*
X253795D01*
X253087D02*
Y388811D01*
X263520D01*
D16*
X196500Y358500D02*
G03*
X196500Y358500I-500J0D01*
G01*
X211000Y266000D02*
G03*
X211000Y266000I-500J0D01*
G01*
M02*
