G04*
G04 #@! TF.GenerationSoftware,Altium Limited,Altium Designer,18.1.7 (191)*
G04*
G04 Layer_Physical_Order=1*
G04 Layer_Color=255*
%FSLAX25Y25*%
%MOIN*%
G70*
G01*
G75*
%ADD14C,0.01000*%
%ADD17R,0.01181X0.02953*%
%ADD18R,0.02953X0.01181*%
%ADD19R,0.10827X0.10433*%
%ADD20R,0.04331X0.06693*%
%ADD21R,0.07874X0.04724*%
%ADD22R,0.05900X0.07900*%
%ADD23R,0.15000X0.07900*%
%ADD24O,0.01378X0.08268*%
%ADD25R,0.03500X0.02800*%
%ADD26R,0.05512X0.08268*%
%ADD27R,0.03543X0.02756*%
%ADD28R,0.02756X0.03543*%
%ADD29R,0.08268X0.05512*%
%ADD30R,0.03543X0.03937*%
%ADD31R,0.01772X0.05433*%
%ADD32R,0.05807X0.08268*%
%ADD33R,0.04626X0.07480*%
%ADD34R,0.09350X0.07480*%
%ADD35R,0.04331X0.06693*%
%ADD36R,0.06693X0.04331*%
%ADD62R,0.05906X0.05906*%
%ADD63C,0.05906*%
%ADD64R,0.05906X0.05906*%
%ADD65C,0.05118*%
%ADD66C,0.05000*%
D14*
X173575Y333583D02*
Y355209D01*
X180866Y362500D01*
X193453D01*
X202453Y371500D01*
Y372000D01*
X171016Y358728D02*
X189847Y377559D01*
X171016Y333583D02*
Y358728D01*
X189847Y377559D02*
X190000D01*
X166000Y359500D02*
X166000Y359500D01*
X166000Y353453D02*
Y359500D01*
X165898Y333583D02*
X166000Y333685D01*
Y347547D01*
X166000Y359500D02*
X167850D01*
X263875Y382625D02*
X269500Y377000D01*
X247000Y399500D02*
X263875Y382625D01*
X276996Y324319D02*
X282996Y318319D01*
X276996Y324319D02*
Y331819D01*
X282996Y313319D02*
Y318319D01*
X281590Y308272D02*
X286996Y313678D01*
X279370Y308272D02*
X281590D01*
X286996Y313678D02*
Y331819D01*
X279917Y310240D02*
X282996Y313319D01*
X275000Y333815D02*
X276996Y331819D01*
X275000Y333815D02*
Y374500D01*
X142866Y302366D02*
Y306417D01*
X141805Y301305D02*
X142866Y302366D01*
X137328Y295343D02*
X138500Y294172D01*
X145425Y301036D02*
Y306417D01*
X143695Y299305D02*
X145425Y301036D01*
X153102Y299389D02*
X155638Y296854D01*
Y293953D02*
Y296854D01*
X153102Y299389D02*
Y306417D01*
X168622Y429500D02*
X170500Y431378D01*
X140000Y342989D02*
X145425Y337564D01*
Y333583D02*
Y337564D01*
X186000Y351500D02*
Y357500D01*
X274000Y321000D02*
X276417Y318583D01*
Y313193D02*
Y318583D01*
X266453Y313193D02*
Y331819D01*
X278000Y340815D02*
X286996Y331819D01*
X278000Y340815D02*
Y373598D01*
X296996Y322819D02*
Y331819D01*
X148000Y395500D02*
X152315Y399815D01*
X149185Y442685D02*
X152500Y446000D01*
X146328Y442685D02*
X149185D01*
X146328Y453315D02*
X148143Y451500D01*
X158583D01*
X159500Y452417D01*
Y455000D01*
X151500Y466547D02*
X153595Y464453D01*
Y455000D02*
Y464453D01*
X149594Y435000D02*
X153595Y439000D01*
X147000Y435000D02*
X149594D01*
X258122Y431378D02*
X266453Y423047D01*
X243453Y419500D02*
X246953Y423000D01*
X171881Y323000D02*
X195500D01*
X246953Y416000D02*
Y423000D01*
Y416000D02*
X247000Y415953D01*
X240315Y358500D02*
X246500D01*
X239315Y359500D02*
X240315Y358500D01*
X246500Y347315D02*
Y358500D01*
Y347315D02*
X246996Y346819D01*
X231000Y419500D02*
X243453D01*
X196646Y328854D02*
X199000Y326500D01*
X195500Y323000D02*
X199000Y326500D01*
X207500Y318000D01*
X212500Y323000D01*
X186000Y343449D02*
Y345595D01*
X176134Y333583D02*
X186000Y343449D01*
X187500Y334130D02*
Y336000D01*
X191500Y340000D01*
X198244Y309815D02*
X198445Y309614D01*
X187500Y309815D02*
X198244D01*
X200315Y299185D02*
X200500Y299000D01*
X187500Y299185D02*
X200315D01*
X168457Y326425D02*
X171881Y323000D01*
X168457Y326425D02*
Y333583D01*
X124033Y282472D02*
X124207Y282646D01*
Y287707D01*
X121474Y282472D02*
X121500Y282498D01*
Y291500D01*
X119089Y282472D02*
Y286609D01*
X118915Y282472D02*
X119089D01*
X137805Y301305D02*
X141805D01*
X137328Y298000D02*
X138634Y299305D01*
X137328Y295343D02*
Y298000D01*
X156500Y389185D02*
X164315D01*
X239000Y359500D02*
X239315D01*
X229185Y364000D02*
X229551Y363634D01*
X222953Y364000D02*
X229185D01*
X211000D02*
X217047D01*
X202500Y355500D02*
X211000Y364000D01*
X140500Y429500D02*
X168622D01*
X134500Y423500D02*
X169496D01*
X169500Y423504D01*
X175287Y380459D02*
X189447D01*
X146328Y351500D02*
X175287Y380459D01*
X157866Y365866D02*
X178500Y386500D01*
X189447Y380459D02*
X202965Y393976D01*
X178500Y386500D02*
X187614D01*
X112772Y335453D02*
X113000D01*
X109728Y332409D02*
X112772Y335453D01*
X109728Y327548D02*
Y332409D01*
Y327548D02*
X113181Y324095D01*
Y323000D02*
Y324095D01*
X113000Y316406D02*
X113181Y316587D01*
Y323000D01*
X196646Y339276D02*
X201870Y344500D01*
X196646Y328854D02*
Y339276D01*
X212500Y344500D02*
X218235D01*
X212500D02*
Y355500D01*
X201870Y354870D02*
X202500Y355500D01*
X201870Y344500D02*
Y354870D01*
X207500Y309614D02*
Y318000D01*
X167260Y266760D02*
X185583D01*
X162543Y296315D02*
X171881Y286977D01*
Y271381D02*
Y286977D01*
X167260Y266760D02*
X171881Y271381D01*
X149260Y266760D02*
X167260D01*
X158075Y300783D02*
X162543Y296315D01*
X156169Y300783D02*
X158075D01*
X155661Y301291D02*
X156169Y300783D01*
X155661Y301291D02*
Y306417D01*
X162543Y278500D02*
Y285685D01*
X148543Y278543D02*
Y285685D01*
X107270Y266760D02*
X149260D01*
X155638Y273138D02*
Y288047D01*
X149260Y266760D02*
X155638Y273138D01*
X185583Y266760D02*
X200500Y281677D01*
X106392Y267638D02*
X107270Y266760D01*
X106392Y267638D02*
Y282228D01*
X110853Y286689D01*
X119008D01*
X119089Y286609D01*
X124207Y287707D02*
X137805Y301305D01*
X160780Y324721D02*
X169000Y316500D01*
X160780Y324721D02*
Y333583D01*
X168457Y315957D02*
X169000Y316500D01*
X168457Y306417D02*
Y315957D01*
X169000Y316500D02*
X171016Y314484D01*
Y306417D02*
Y314484D01*
X150485Y316500D02*
X154934Y312051D01*
X157713D01*
X158221Y311544D01*
Y306417D02*
Y311544D01*
X163339Y306417D02*
Y312132D01*
X131047Y325000D02*
X150470D01*
X160780Y306417D02*
Y311863D01*
X144413Y320500D02*
X152142D01*
X160780Y311863D01*
X150470Y325000D02*
X163339Y312132D01*
X150485Y306475D02*
Y316500D01*
Y306475D02*
X150543Y306417D01*
X130232Y306319D02*
X144413Y320500D01*
X147984Y296874D02*
X148543Y296315D01*
X147984Y296874D02*
Y306417D01*
X121185Y329547D02*
X121598Y329134D01*
X113000Y329547D02*
X121185D01*
X120736Y310500D02*
X120783Y310453D01*
X113000Y310500D02*
X120736D01*
X137328Y293000D02*
X138500Y294172D01*
X138634Y299305D02*
X143695D01*
X129285Y286604D02*
X132181Y289500D01*
X129285Y282606D02*
Y286604D01*
X129152Y282472D02*
X129285Y282606D01*
X198445Y309614D02*
Y318000D01*
X200500Y299000D02*
X217000D01*
X216555Y309614D02*
X217000Y309169D01*
Y299000D02*
Y309169D01*
X227500Y270000D02*
Y277000D01*
X217000Y270500D02*
X217500Y270000D01*
X217000Y270500D02*
Y281677D01*
X170500Y454000D02*
X178500D01*
X169500Y455000D02*
X170500Y454000D01*
X176000Y374500D02*
X181232D01*
X181732Y375000D01*
X221000Y423504D02*
X228009D01*
X217500Y374500D02*
X223000D01*
X281327Y479000D02*
Y485000D01*
X245500Y467283D02*
X281327D01*
X287000Y423500D02*
X288500Y422000D01*
Y388000D02*
Y422000D01*
X275000Y374500D02*
X288500Y388000D01*
X287000Y433500D02*
X291500Y429000D01*
Y387098D02*
Y429000D01*
X278000Y373598D02*
X291500Y387098D01*
X287059Y377000D02*
X296590D01*
X159500Y455000D02*
Y478000D01*
X155000Y482500D02*
X159500Y478000D01*
X142500Y482500D02*
X155000D01*
X270500Y428953D02*
Y434500D01*
X286547Y423047D02*
X287000Y423500D01*
X270500Y423047D02*
X286547D01*
X266453D02*
X270500D01*
X228555Y431378D02*
X258122D01*
X280953Y439547D02*
X287000Y433500D01*
X245500Y439547D02*
X280953D01*
X270327Y445453D02*
X270374Y445500D01*
X245500Y445453D02*
X270327D01*
X245205Y439252D02*
X245500Y439547D01*
X228555Y439252D02*
X245205D01*
X306996Y331819D02*
Y339819D01*
Y290819D02*
Y331819D01*
X300496Y284319D02*
X306996Y290819D01*
X274496Y284319D02*
X300496D01*
X268496Y290319D02*
X274496Y284319D01*
X266575Y290319D02*
X268496D01*
X276500Y453500D02*
X287000D01*
X285000Y445500D02*
X287000Y443500D01*
X270374Y445500D02*
X285000D01*
X246953Y423000D02*
X252500D01*
X209232Y442500D02*
Y445500D01*
X218732Y455000D01*
X228555D01*
X220500Y442500D02*
X225126Y447126D01*
X228555D01*
X215000Y436513D02*
Y445000D01*
X221138Y451138D01*
X215000Y436513D02*
X228009Y423504D01*
X221138Y451138D02*
X233114D01*
X296311Y294504D02*
Y302319D01*
X232496Y327319D02*
X236996Y331819D01*
X232496Y313819D02*
Y327319D01*
Y313819D02*
X237496Y308819D01*
X245496D01*
X249496Y304819D01*
Y287319D02*
Y304819D01*
Y287319D02*
X251996Y284819D01*
X258496D01*
X261496Y287819D01*
Y298272D01*
X263622Y300398D01*
X246996Y331819D02*
X247996Y330819D01*
Y311319D02*
Y330819D01*
Y311319D02*
X253012Y306303D01*
X263622D01*
X255996Y289819D02*
X259496Y293319D01*
Y299957D01*
X242020Y315319D02*
X244850Y312488D01*
X237496Y315319D02*
X242020D01*
X244850Y312488D02*
X245181Y312819D01*
X237496Y297819D02*
X244866D01*
X245366Y298319D01*
X259496Y299957D02*
X261858Y302319D01*
X263575D01*
X263622Y302366D01*
X255996Y299819D02*
X260512Y304335D01*
X263622D01*
X255996Y298319D02*
Y299819D01*
X246996Y331819D02*
Y340913D01*
X113784Y438500D02*
Y446673D01*
Y438000D02*
Y438500D01*
X113547Y364500D02*
Y370000D01*
Y363547D02*
Y364500D01*
X255811Y312819D02*
X260358Y308272D01*
X263622D01*
X261496Y312488D02*
X263622Y310362D01*
X261496Y312488D02*
Y316319D01*
X256996Y320819D02*
X261496Y316319D01*
X256996Y320819D02*
Y331819D01*
X266453D02*
X266996D01*
X279370Y310240D02*
X279917D01*
X266575Y279689D02*
X273366D01*
X276417Y289819D02*
Y297445D01*
X266575Y290319D02*
Y297445D01*
X285634Y302366D02*
X285681Y302319D01*
X279370Y302366D02*
X285634D01*
X190000Y377559D02*
X196595D01*
X208732D02*
X209232Y377059D01*
X202500Y377559D02*
X208732D01*
X209173Y372000D02*
X209232Y371941D01*
X202453Y372000D02*
X209173D01*
X196106Y372441D02*
X196547Y372000D01*
X190000Y372441D02*
X196106D01*
X247000Y415500D02*
Y415953D01*
X230992Y419492D02*
X231000Y419500D01*
X223997Y419492D02*
X230992D01*
X204386Y399882D02*
X223997Y419492D01*
X169500Y399882D02*
X204386D01*
X247000Y407500D02*
X252500D01*
X228009Y423504D02*
X228555D01*
X233114Y451138D02*
X234570Y452595D01*
X245500D01*
Y485000D02*
X281327D01*
X245500Y458500D02*
Y467283D01*
X287000Y377059D02*
X287059Y377000D01*
X228555Y394445D02*
X236500Y386500D01*
X228555Y394445D02*
Y399882D01*
X269500Y377000D02*
X271000D01*
X241094Y399500D02*
Y407500D01*
X240839Y407756D02*
X241094Y407500D01*
X228555Y407756D02*
X240839D01*
X240965Y415630D02*
X241094Y415500D01*
X228555Y415630D02*
X240965D01*
X240543Y423504D02*
X241047Y423000D01*
X228555Y423504D02*
X240543D01*
X148047Y466547D02*
X151500D01*
X139500Y458000D02*
X148047Y466547D01*
X139500Y457000D02*
Y458000D01*
X113500Y350500D02*
Y356000D01*
X113547Y378500D02*
Y384500D01*
X113500Y393000D02*
Y399000D01*
Y407500D02*
Y413500D01*
X113547Y421047D02*
Y427500D01*
X113784Y446673D02*
Y482500D01*
X131500Y446673D02*
Y482500D01*
X151500Y472453D02*
X151949Y472902D01*
Y478366D01*
X131500Y482500D02*
X142500D01*
X169248Y439000D02*
X169500Y439252D01*
X159500Y439000D02*
X169248D01*
X159500Y455000D02*
X169500D01*
X152315Y399815D02*
X156500D01*
X124917Y427500D02*
X125051Y427634D01*
X119453Y427500D02*
X124917D01*
X124917Y413500D02*
X125051Y413366D01*
X119405Y413500D02*
X124917D01*
Y399000D02*
X125051Y398866D01*
X119405Y399000D02*
X124917D01*
Y384500D02*
X125051Y384366D01*
X119453Y384500D02*
X124917D01*
X125051Y370000D02*
X125051Y370000D01*
X119453Y370000D02*
X125051D01*
X124685Y356000D02*
X125051Y355634D01*
X119405Y356000D02*
X124685D01*
X134500Y351500D02*
X146328D01*
X187614Y386500D02*
X195091Y393976D01*
X134500Y365866D02*
X157866D01*
X165598Y380232D02*
X179342Y393976D01*
X134500Y380232D02*
X165598D01*
X169433Y399815D02*
X169500Y399882D01*
X156500Y399815D02*
X169433D01*
X152756Y407756D02*
X169500D01*
X139732Y394732D02*
X152756Y407756D01*
X134500Y394732D02*
X139732D01*
X152630Y415630D02*
X169500D01*
X146232Y409232D02*
X152630Y415630D01*
X134500Y409232D02*
X146232D01*
D17*
X276417Y313193D02*
D03*
X274449D02*
D03*
X272480D02*
D03*
X270512D02*
D03*
X268543D02*
D03*
X266575D02*
D03*
Y297445D02*
D03*
X268543D02*
D03*
X270512D02*
D03*
X272480D02*
D03*
X274449D02*
D03*
X276417D02*
D03*
D18*
X263622Y310240D02*
D03*
Y308272D02*
D03*
Y306303D02*
D03*
Y304335D02*
D03*
Y302366D02*
D03*
Y300398D02*
D03*
X279370D02*
D03*
Y302366D02*
D03*
Y304335D02*
D03*
Y306303D02*
D03*
Y308272D02*
D03*
Y310240D02*
D03*
D19*
X271496Y305319D02*
D03*
D20*
X218713Y393976D02*
D03*
X210839D02*
D03*
X202965D02*
D03*
X195091D02*
D03*
X187216D02*
D03*
X179342D02*
D03*
D21*
X228555Y455000D02*
D03*
Y447126D02*
D03*
Y439252D02*
D03*
Y431378D02*
D03*
Y423504D02*
D03*
Y415630D02*
D03*
Y407756D02*
D03*
Y399882D02*
D03*
X169500D02*
D03*
Y407756D02*
D03*
Y415630D02*
D03*
Y423504D02*
D03*
Y431378D02*
D03*
Y439252D02*
D03*
Y447126D02*
D03*
Y455000D02*
D03*
D22*
X198445Y309614D02*
D03*
X207500D02*
D03*
X216555D02*
D03*
D23*
X207500Y334500D02*
D03*
D24*
X176134Y333583D02*
D03*
X173575D02*
D03*
X171016D02*
D03*
X168457D02*
D03*
X165898D02*
D03*
X163339D02*
D03*
X160780D02*
D03*
X158221D02*
D03*
X155661D02*
D03*
X153102D02*
D03*
X150543D02*
D03*
X147984D02*
D03*
X145425D02*
D03*
X142866D02*
D03*
X176134Y306417D02*
D03*
X173575D02*
D03*
X171016D02*
D03*
X168457D02*
D03*
X165898D02*
D03*
X163339D02*
D03*
X160780D02*
D03*
X158221D02*
D03*
X155661D02*
D03*
X153102D02*
D03*
X150543D02*
D03*
X147984D02*
D03*
X145425D02*
D03*
X142866D02*
D03*
D25*
X217500Y374500D02*
D03*
X209232Y371941D02*
D03*
Y377059D02*
D03*
X181732Y375000D02*
D03*
X190000Y377559D02*
D03*
Y372441D02*
D03*
D26*
X113784Y482500D02*
D03*
Y446673D02*
D03*
X131500Y482500D02*
D03*
Y446673D02*
D03*
D27*
X246996Y340913D02*
D03*
Y346819D02*
D03*
X245500Y439547D02*
D03*
Y445453D02*
D03*
X270500Y423047D02*
D03*
Y428953D02*
D03*
X245500Y458500D02*
D03*
Y452595D02*
D03*
X151500Y472453D02*
D03*
Y466547D02*
D03*
X113000Y329547D02*
D03*
Y335453D02*
D03*
X113000Y310500D02*
D03*
Y316406D02*
D03*
X155638Y288047D02*
D03*
Y293953D02*
D03*
X166000Y347547D02*
D03*
Y353453D02*
D03*
X186000Y345547D02*
D03*
Y351453D02*
D03*
D28*
X241094Y399500D02*
D03*
X247000D02*
D03*
X119405Y413500D02*
D03*
X113500D02*
D03*
X119405Y399000D02*
D03*
X113500D02*
D03*
X119453Y384500D02*
D03*
X113547D02*
D03*
X119453Y370000D02*
D03*
X113547D02*
D03*
X119405Y356000D02*
D03*
X113500D02*
D03*
X119453Y427500D02*
D03*
X113547D02*
D03*
X246953Y423000D02*
D03*
X241047D02*
D03*
X247000Y415500D02*
D03*
X241094D02*
D03*
X247000Y407500D02*
D03*
X241094D02*
D03*
X202500Y377559D02*
D03*
X196595D02*
D03*
X153595Y439000D02*
D03*
X159500D02*
D03*
X202453Y372000D02*
D03*
X196547D02*
D03*
X153595Y455000D02*
D03*
X159500D02*
D03*
X222953Y364000D02*
D03*
X217047D02*
D03*
D29*
X281327Y485000D02*
D03*
X245500D02*
D03*
X281327Y467283D02*
D03*
X245500D02*
D03*
X217000Y281677D02*
D03*
Y299000D02*
D03*
X200500Y281677D02*
D03*
Y299000D02*
D03*
D30*
X151949Y478366D02*
D03*
Y486634D02*
D03*
X142500Y482500D02*
D03*
X134500Y409232D02*
D03*
Y417500D02*
D03*
X125051Y413366D02*
D03*
X134500Y394732D02*
D03*
Y403000D02*
D03*
X125051Y398866D02*
D03*
X134500Y380232D02*
D03*
Y388500D02*
D03*
X125051Y384366D02*
D03*
X134500Y365866D02*
D03*
Y374134D02*
D03*
X125051Y370000D02*
D03*
X134500Y351500D02*
D03*
Y359768D02*
D03*
X125051Y355634D02*
D03*
X134500Y423500D02*
D03*
Y431768D02*
D03*
X125051Y427634D02*
D03*
X229551Y363634D02*
D03*
Y355366D02*
D03*
X239000Y359500D02*
D03*
X121598Y329134D02*
D03*
Y320866D02*
D03*
X131047Y325000D02*
D03*
X120783Y310453D02*
D03*
Y302185D02*
D03*
X130232Y306319D02*
D03*
D31*
X118915Y282472D02*
D03*
X121474D02*
D03*
X124033D02*
D03*
X126593D02*
D03*
X129152D02*
D03*
D32*
X133689Y281055D02*
D03*
X114378D02*
D03*
D33*
X120736Y272000D02*
D03*
X127331D02*
D03*
D34*
X112567D02*
D03*
X135500D02*
D03*
D35*
X254626Y298319D02*
D03*
X243996D02*
D03*
X254496Y315319D02*
D03*
X243866D02*
D03*
X285681Y302319D02*
D03*
X296311D02*
D03*
X212500Y344500D02*
D03*
X201870D02*
D03*
D36*
X266575Y290319D02*
D03*
Y279689D02*
D03*
X146328Y453315D02*
D03*
Y442685D02*
D03*
X156500Y399815D02*
D03*
Y389185D02*
D03*
X187500Y299185D02*
D03*
Y309815D02*
D03*
X148543Y296315D02*
D03*
Y285685D02*
D03*
X187500Y323500D02*
D03*
Y334130D02*
D03*
X162543Y296315D02*
D03*
Y285685D02*
D03*
D62*
X306996Y331819D02*
D03*
X212500Y355500D02*
D03*
X227500Y270000D02*
D03*
D63*
X296996Y331819D02*
D03*
X286996D02*
D03*
X276996D02*
D03*
X266996D02*
D03*
X256996D02*
D03*
X246996D02*
D03*
X236996D02*
D03*
X287000Y423500D02*
D03*
Y433500D02*
D03*
Y443500D02*
D03*
X202500Y355500D02*
D03*
X217500Y270000D02*
D03*
D64*
X287000Y453500D02*
D03*
D65*
X296590Y377000D02*
D03*
X271000D02*
D03*
D66*
X166000Y359500D02*
D03*
X186000Y357500D02*
D03*
X274000Y321000D02*
D03*
X296996Y322819D02*
D03*
X148000Y395500D02*
D03*
X152500Y446000D02*
D03*
X246500Y358500D02*
D03*
X191500Y340000D02*
D03*
X164315Y389185D02*
D03*
X132181Y289500D02*
D03*
X140500Y429500D02*
D03*
X140000Y342989D02*
D03*
X113181Y323000D02*
D03*
X212500D02*
D03*
X218235Y344500D02*
D03*
X162543Y278500D02*
D03*
X148543Y278543D02*
D03*
X169000Y316500D02*
D03*
X150485D02*
D03*
X137328Y293000D02*
D03*
X121500Y291500D02*
D03*
X198445Y318000D02*
D03*
X227500Y277000D02*
D03*
X178500Y454000D02*
D03*
X176000Y374500D02*
D03*
X223000D02*
D03*
X281327Y479000D02*
D03*
X270500Y434500D02*
D03*
X306996Y339819D02*
D03*
X276500Y453500D02*
D03*
X270374Y445500D02*
D03*
X252500Y423000D02*
D03*
X209232Y442500D02*
D03*
X220500D02*
D03*
X296311Y294504D02*
D03*
X255996Y289819D02*
D03*
X237496Y315319D02*
D03*
Y297819D02*
D03*
X273366Y279689D02*
D03*
X276417Y289819D02*
D03*
X113784Y438500D02*
D03*
X252500Y407500D02*
D03*
X287059Y377000D02*
D03*
X236500Y386500D02*
D03*
X221000Y423500D02*
D03*
X139500Y457000D02*
D03*
X113547Y421047D02*
D03*
X113500Y407500D02*
D03*
Y393000D02*
D03*
X113547Y378500D02*
D03*
Y364500D02*
D03*
X113500Y350500D02*
D03*
X147000Y435000D02*
D03*
M02*
