M48
;Layer_Color=9474304
;FILE_FORMAT=2:5
INCH,LZ
;TYPE=PLATED
T1F00S00C0.02800
T2F00S00C0.03150
T3F00S00C0.03543
%
T01
X0162543Y02785
X02275Y0277
X0237496Y0297819
X0255996Y0289819
X0276417
X0273366Y0279689
X0296311Y0294504
X0137328Y0293
X0132181Y02895
X01215Y02915
X0148543Y0278543
X0150485Y03165
X014Y0342989
X01135Y03505
X0113547Y03645
Y03785
X01135Y0393
Y04075
X0113547Y0421047
X0113784Y04385
X01405Y04295
X0147Y0435
X01525Y0446
X01395Y0457
X0148Y03955
X0113181Y0323
X0169Y03165
X0198445Y0318
X02125Y0323
X0218235Y03445
X01915Y034
X0186Y03575
X0166Y03595
X0176Y03745
X0164315Y0389185
X0223Y03745
X02365Y03865
X02525Y04075
Y0423
X02705Y04345
X0270374Y04455
X02765Y04535
X02205Y04425
X0209232
X0221Y04235
X01785Y0454
X02465Y03585
X0237496Y0315319
X0274Y0321
X0296996Y0322819
X0306996Y0339819
X0287059Y0377
X0281327Y0479
T02
X0271Y0377
X029659
T03
X02175Y027
X02275
X0236996Y0331819
X0246996
X0256996
X0266996
X0276996
X0286996
X0296996
X0306996
X0287Y04235
Y04335
Y04435
Y04535
X02125Y03555
X02025
M30
