G04*
G04 #@! TF.GenerationSoftware,Altium Limited,Altium Designer,18.1.7 (191)*
G04*
G04 Layer_Color=16711935*
%FSLAX25Y25*%
%MOIN*%
G70*
G01*
G75*
%ADD15C,0.00394*%
D15*
X178595Y327480D02*
G03*
X178595Y327480I-1969J0D01*
G01*
X138831Y331024D02*
X180169D01*
X138831Y308976D02*
X180169D01*
Y331024D01*
X138831Y308976D02*
Y331024D01*
X245126Y340520D02*
X248866D01*
X245126Y347213D02*
X248866D01*
X245126Y340520D02*
Y347213D01*
X248866Y340520D02*
Y347213D01*
X243630Y439153D02*
X247370D01*
X243630Y445847D02*
X247370D01*
X243630Y439153D02*
Y445847D01*
X247370Y439153D02*
Y445847D01*
X268630Y422653D02*
X272370D01*
X268630Y429347D02*
X272370D01*
X268630Y422653D02*
Y429347D01*
X272370Y422653D02*
Y429347D01*
X240701Y397630D02*
Y401370D01*
X247394Y397630D02*
Y401370D01*
X240701D02*
X247394D01*
X240701Y397630D02*
X247394D01*
X119799Y411630D02*
Y415370D01*
X113106Y411630D02*
Y415370D01*
Y411630D02*
X119799D01*
X113106Y415370D02*
X119799D01*
Y397130D02*
Y400870D01*
X113106Y397130D02*
Y400870D01*
Y397130D02*
X119799D01*
X113106Y400870D02*
X119799D01*
X119846Y382630D02*
Y386370D01*
X113154Y382630D02*
Y386370D01*
Y382630D02*
X119846D01*
X113154Y386370D02*
X119846D01*
Y368130D02*
Y371870D01*
X113154Y368130D02*
Y371870D01*
Y368130D02*
X119846D01*
X113154Y371870D02*
X119846D01*
X119799Y354130D02*
Y357870D01*
X113106Y354130D02*
Y357870D01*
Y354130D02*
X119799D01*
X113106Y357870D02*
X119799D01*
X119846Y425630D02*
Y429370D01*
X113154Y425630D02*
Y429370D01*
Y425630D02*
X119846D01*
X113154Y429370D02*
X119846D01*
X243630Y458894D02*
X247370D01*
X243630Y452201D02*
X247370D01*
Y458894D01*
X243630Y452201D02*
Y458894D01*
X149630Y472847D02*
X153370D01*
X149630Y466153D02*
X153370D01*
Y472847D01*
X149630Y466153D02*
Y472847D01*
X247346Y421130D02*
Y424870D01*
X240653Y421130D02*
Y424870D01*
Y421130D02*
X247346D01*
X240653Y424870D02*
X247346D01*
X247394Y413630D02*
Y417370D01*
X240701Y413630D02*
Y417370D01*
Y413630D02*
X247394D01*
X240701Y417370D02*
X247394D01*
Y405630D02*
Y409370D01*
X240701Y405630D02*
Y409370D01*
Y405630D02*
X247394D01*
X240701Y409370D02*
X247394D01*
X202894Y375689D02*
Y379429D01*
X196201Y375689D02*
Y379429D01*
Y375689D02*
X202894D01*
X196201Y379429D02*
X202894D01*
X153201Y437130D02*
Y440870D01*
X159894Y437130D02*
Y440870D01*
X153201D02*
X159894D01*
X153201Y437130D02*
X159894D01*
X202847Y370130D02*
Y373870D01*
X196153Y370130D02*
Y373870D01*
Y370130D02*
X202847D01*
X196153Y373870D02*
X202847D01*
X153201Y453130D02*
Y456870D01*
X159894Y453130D02*
Y456870D01*
X153201D02*
X159894D01*
X153201Y453130D02*
X159894D01*
X223346Y362130D02*
Y365870D01*
X216653Y362130D02*
Y365870D01*
Y362130D02*
X223346D01*
X216653Y365870D02*
X223346D01*
X111130Y329153D02*
X114870D01*
X111130Y335846D02*
X114870D01*
X111130Y329153D02*
Y335846D01*
X114870Y329153D02*
Y335846D01*
X111130Y310106D02*
X114870D01*
X111130Y316799D02*
X114870D01*
X111130Y310106D02*
Y316799D01*
X114870Y310106D02*
Y316799D01*
X153768Y287653D02*
X157508D01*
X153768Y294346D02*
X157508D01*
X153768Y287653D02*
Y294346D01*
X157508Y287653D02*
Y294346D01*
X164130Y347153D02*
X167870D01*
X164130Y353847D02*
X167870D01*
X164130Y347153D02*
Y353847D01*
X167870Y347153D02*
Y353847D01*
X184130Y345153D02*
X187870D01*
X184130Y351847D02*
X187870D01*
X184130Y345153D02*
Y351847D01*
X187870Y345153D02*
Y351847D01*
X242618Y294776D02*
X256004D01*
X242618Y301862D02*
X256004D01*
Y294776D02*
Y301862D01*
X242618Y294776D02*
Y301862D01*
X242488Y311776D02*
X255874D01*
X242488Y318862D02*
X255874D01*
Y311776D02*
Y318862D01*
X242488Y311776D02*
Y318862D01*
X270118Y278311D02*
Y291697D01*
X263032Y278311D02*
Y291697D01*
X270118D01*
X263032Y278311D02*
X270118D01*
X284303Y305862D02*
X297689D01*
X284303Y298776D02*
X297689D01*
X284303D02*
Y305862D01*
X297689Y298776D02*
Y305862D01*
X149872Y441307D02*
Y454693D01*
X142785Y441307D02*
Y454693D01*
X149872D01*
X142785Y441307D02*
X149872D01*
X160043Y387807D02*
Y401193D01*
X152957Y387807D02*
Y401193D01*
X160043D01*
X152957Y387807D02*
X160043D01*
X200492Y340957D02*
X213878D01*
X200492Y348043D02*
X213878D01*
Y340957D02*
Y348043D01*
X200492Y340957D02*
Y348043D01*
X183957Y297807D02*
Y311193D01*
X191043Y297807D02*
Y311193D01*
X183957Y297807D02*
X191043D01*
X183957Y311193D02*
X191043D01*
X152087Y284307D02*
Y297693D01*
X145000Y284307D02*
Y297693D01*
X152087D01*
X145000Y284307D02*
X152087D01*
X183957Y322122D02*
Y335508D01*
X191043Y322122D02*
Y335508D01*
X183957Y322122D02*
X191043D01*
X183957Y335508D02*
X191043D01*
X166087Y284307D02*
Y297693D01*
X159000Y284307D02*
Y297693D01*
X166087D01*
X159000Y284307D02*
X166087D01*
M02*
