G04*
G04 #@! TF.GenerationSoftware,Altium Limited,Altium Designer,18.1.7 (191)*
G04*
G04 Layer_Color=8388736*
%FSLAX25Y25*%
%MOIN*%
G70*
G01*
G75*
%ADD37R,0.01981X0.03753*%
%ADD38R,0.03753X0.01981*%
%ADD39R,0.11627X0.11233*%
%ADD40R,0.05131X0.07493*%
%ADD41R,0.08674X0.05524*%
%ADD42R,0.06700X0.08700*%
%ADD43R,0.15800X0.08700*%
%ADD44O,0.02178X0.09068*%
%ADD45R,0.04300X0.03600*%
%ADD46R,0.06312X0.09068*%
%ADD47R,0.04343X0.03556*%
%ADD48R,0.03556X0.04343*%
%ADD49R,0.09068X0.06312*%
%ADD50R,0.04343X0.04737*%
%ADD51R,0.02572X0.06233*%
%ADD52R,0.06607X0.09068*%
%ADD53R,0.05426X0.08280*%
%ADD54R,0.10150X0.08280*%
%ADD55R,0.05131X0.07493*%
%ADD56R,0.07493X0.05131*%
%ADD57R,0.06706X0.06706*%
%ADD58C,0.06706*%
%ADD59R,0.06706X0.06706*%
%ADD60C,0.05918*%
%ADD61C,0.05800*%
D37*
X276417Y313193D02*
D03*
X274449D02*
D03*
X272480D02*
D03*
X270512D02*
D03*
X268543D02*
D03*
X266575D02*
D03*
Y297445D02*
D03*
X268543D02*
D03*
X270512D02*
D03*
X272480D02*
D03*
X274449D02*
D03*
X276417D02*
D03*
D38*
X263622Y310240D02*
D03*
Y308272D02*
D03*
Y306303D02*
D03*
Y304335D02*
D03*
Y302366D02*
D03*
Y300398D02*
D03*
X279370D02*
D03*
Y302366D02*
D03*
Y304335D02*
D03*
Y306303D02*
D03*
Y308272D02*
D03*
Y310240D02*
D03*
D39*
X271496Y305319D02*
D03*
D40*
X218713Y393976D02*
D03*
X210839D02*
D03*
X202965D02*
D03*
X195091D02*
D03*
X187216D02*
D03*
X179342D02*
D03*
D41*
X228555Y455000D02*
D03*
Y447126D02*
D03*
Y439252D02*
D03*
Y431378D02*
D03*
Y423504D02*
D03*
Y415630D02*
D03*
Y407756D02*
D03*
Y399882D02*
D03*
X169500D02*
D03*
Y407756D02*
D03*
Y415630D02*
D03*
Y423504D02*
D03*
Y431378D02*
D03*
Y439252D02*
D03*
Y447126D02*
D03*
Y455000D02*
D03*
D42*
X198445Y309614D02*
D03*
X207500D02*
D03*
X216555D02*
D03*
D43*
X207500Y334500D02*
D03*
D44*
X176134Y333583D02*
D03*
X173575D02*
D03*
X171016D02*
D03*
X168457D02*
D03*
X165898D02*
D03*
X163339D02*
D03*
X160780D02*
D03*
X158221D02*
D03*
X155661D02*
D03*
X153102D02*
D03*
X150543D02*
D03*
X147984D02*
D03*
X145425D02*
D03*
X142866D02*
D03*
X176134Y306417D02*
D03*
X173575D02*
D03*
X171016D02*
D03*
X168457D02*
D03*
X165898D02*
D03*
X163339D02*
D03*
X160780D02*
D03*
X158221D02*
D03*
X155661D02*
D03*
X153102D02*
D03*
X150543D02*
D03*
X147984D02*
D03*
X145425D02*
D03*
X142866D02*
D03*
D45*
X217500Y374500D02*
D03*
X209232Y371941D02*
D03*
Y377059D02*
D03*
X181732Y375000D02*
D03*
X190000Y377559D02*
D03*
Y372441D02*
D03*
D46*
X113784Y482500D02*
D03*
Y446673D02*
D03*
X131500Y482500D02*
D03*
Y446673D02*
D03*
D47*
X246996Y340913D02*
D03*
Y346819D02*
D03*
X245500Y439547D02*
D03*
Y445453D02*
D03*
X270500Y423047D02*
D03*
Y428953D02*
D03*
X245500Y458500D02*
D03*
Y452595D02*
D03*
X151500Y472453D02*
D03*
Y466547D02*
D03*
X113000Y329547D02*
D03*
Y335453D02*
D03*
X113000Y310500D02*
D03*
Y316406D02*
D03*
X155638Y288047D02*
D03*
Y293953D02*
D03*
X166000Y347547D02*
D03*
Y353453D02*
D03*
X186000Y345547D02*
D03*
Y351453D02*
D03*
D48*
X241094Y399500D02*
D03*
X247000D02*
D03*
X119405Y413500D02*
D03*
X113500D02*
D03*
X119405Y399000D02*
D03*
X113500D02*
D03*
X119453Y384500D02*
D03*
X113547D02*
D03*
X119453Y370000D02*
D03*
X113547D02*
D03*
X119405Y356000D02*
D03*
X113500D02*
D03*
X119453Y427500D02*
D03*
X113547D02*
D03*
X246953Y423000D02*
D03*
X241047D02*
D03*
X247000Y415500D02*
D03*
X241094D02*
D03*
X247000Y407500D02*
D03*
X241094D02*
D03*
X202500Y377559D02*
D03*
X196595D02*
D03*
X153595Y439000D02*
D03*
X159500D02*
D03*
X202453Y372000D02*
D03*
X196547D02*
D03*
X153595Y455000D02*
D03*
X159500D02*
D03*
X222953Y364000D02*
D03*
X217047D02*
D03*
D49*
X281327Y485000D02*
D03*
X245500D02*
D03*
X281327Y467283D02*
D03*
X245500D02*
D03*
X217000Y281677D02*
D03*
Y299000D02*
D03*
X200500Y281677D02*
D03*
Y299000D02*
D03*
D50*
X151949Y478366D02*
D03*
Y486634D02*
D03*
X142500Y482500D02*
D03*
X134500Y409232D02*
D03*
Y417500D02*
D03*
X125051Y413366D02*
D03*
X134500Y394732D02*
D03*
Y403000D02*
D03*
X125051Y398866D02*
D03*
X134500Y380232D02*
D03*
Y388500D02*
D03*
X125051Y384366D02*
D03*
X134500Y365866D02*
D03*
Y374134D02*
D03*
X125051Y370000D02*
D03*
X134500Y351500D02*
D03*
Y359768D02*
D03*
X125051Y355634D02*
D03*
X134500Y423500D02*
D03*
Y431768D02*
D03*
X125051Y427634D02*
D03*
X229551Y363634D02*
D03*
Y355366D02*
D03*
X239000Y359500D02*
D03*
X121598Y329134D02*
D03*
Y320866D02*
D03*
X131047Y325000D02*
D03*
X120783Y310453D02*
D03*
Y302185D02*
D03*
X130232Y306319D02*
D03*
D51*
X118915Y282472D02*
D03*
X121474D02*
D03*
X124033D02*
D03*
X126593D02*
D03*
X129152D02*
D03*
D52*
X133689Y281055D02*
D03*
X114378D02*
D03*
D53*
X120736Y272000D02*
D03*
X127331D02*
D03*
D54*
X112567D02*
D03*
X135500D02*
D03*
D55*
X254626Y298319D02*
D03*
X243996D02*
D03*
X254496Y315319D02*
D03*
X243866D02*
D03*
X285681Y302319D02*
D03*
X296311D02*
D03*
X212500Y344500D02*
D03*
X201870D02*
D03*
D56*
X266575Y290319D02*
D03*
Y279689D02*
D03*
X146328Y453315D02*
D03*
Y442685D02*
D03*
X156500Y399815D02*
D03*
Y389185D02*
D03*
X187500Y299185D02*
D03*
Y309815D02*
D03*
X148543Y296315D02*
D03*
Y285685D02*
D03*
X187500Y323500D02*
D03*
Y334130D02*
D03*
X162543Y296315D02*
D03*
Y285685D02*
D03*
D57*
X306996Y331819D02*
D03*
X212500Y355500D02*
D03*
X227500Y270000D02*
D03*
D58*
X296996Y331819D02*
D03*
X286996D02*
D03*
X276996D02*
D03*
X266996D02*
D03*
X256996D02*
D03*
X246996D02*
D03*
X236996D02*
D03*
X287000Y423500D02*
D03*
Y433500D02*
D03*
Y443500D02*
D03*
X202500Y355500D02*
D03*
X217500Y270000D02*
D03*
D59*
X287000Y453500D02*
D03*
D60*
X296590Y377000D02*
D03*
X271000D02*
D03*
D61*
X166000Y359500D02*
D03*
X186000Y357500D02*
D03*
X274000Y321000D02*
D03*
X296996Y322819D02*
D03*
X148000Y395500D02*
D03*
X152500Y446000D02*
D03*
X246500Y358500D02*
D03*
X191500Y340000D02*
D03*
X164315Y389185D02*
D03*
X132181Y289500D02*
D03*
X140500Y429500D02*
D03*
X140000Y342989D02*
D03*
X113181Y323000D02*
D03*
X212500D02*
D03*
X218235Y344500D02*
D03*
X162543Y278500D02*
D03*
X148543Y278543D02*
D03*
X169000Y316500D02*
D03*
X150485D02*
D03*
X137328Y293000D02*
D03*
X121500Y291500D02*
D03*
X198445Y318000D02*
D03*
X227500Y277000D02*
D03*
X178500Y454000D02*
D03*
X176000Y374500D02*
D03*
X223000D02*
D03*
X281327Y479000D02*
D03*
X270500Y434500D02*
D03*
X306996Y339819D02*
D03*
X276500Y453500D02*
D03*
X270374Y445500D02*
D03*
X252500Y423000D02*
D03*
X209232Y442500D02*
D03*
X220500D02*
D03*
X296311Y294504D02*
D03*
X255996Y289819D02*
D03*
X237496Y315319D02*
D03*
Y297819D02*
D03*
X273366Y279689D02*
D03*
X276417Y289819D02*
D03*
X113784Y438500D02*
D03*
X252500Y407500D02*
D03*
X287059Y377000D02*
D03*
X236500Y386500D02*
D03*
X221000Y423500D02*
D03*
X139500Y457000D02*
D03*
X113547Y421047D02*
D03*
X113500Y407500D02*
D03*
Y393000D02*
D03*
X113547Y378500D02*
D03*
Y364500D02*
D03*
X113500Y350500D02*
D03*
X147000Y435000D02*
D03*
M02*
