G04*
G04 #@! TF.GenerationSoftware,Altium Limited,Altium Designer,18.1.7 (191)*
G04*
G04 Layer_Physical_Order=2*
G04 Layer_Color=16711680*
%FSLAX25Y25*%
%MOIN*%
G70*
G01*
G75*
%ADD14C,0.01000*%
%ADD62R,0.05906X0.05906*%
%ADD63C,0.05906*%
%ADD64R,0.05906X0.05906*%
%ADD65C,0.05118*%
%ADD66C,0.05000*%
G36*
X317500Y261500D02*
X100000D01*
Y500500D01*
X317500D01*
Y261500D01*
D02*
G37*
%LPC*%
G36*
X281827Y482464D02*
Y479500D01*
X284791D01*
X284737Y479914D01*
X284384Y480765D01*
X283823Y481496D01*
X283092Y482057D01*
X282241Y482410D01*
X281827Y482464D01*
D02*
G37*
G36*
X280827D02*
X280413Y482410D01*
X279562Y482057D01*
X278831Y481496D01*
X278270Y480765D01*
X277917Y479914D01*
X277862Y479500D01*
X280827D01*
Y482464D01*
D02*
G37*
G36*
X284791Y478500D02*
X281827D01*
Y475536D01*
X282241Y475590D01*
X283092Y475943D01*
X283823Y476504D01*
X284384Y477235D01*
X284737Y478086D01*
X284791Y478500D01*
D02*
G37*
G36*
X280827D02*
X277862D01*
X277917Y478086D01*
X278270Y477235D01*
X278831Y476504D01*
X279562Y475943D01*
X280413Y475590D01*
X280827Y475536D01*
Y478500D01*
D02*
G37*
G36*
X290953Y457453D02*
X287500D01*
Y454000D01*
X290953D01*
Y457453D01*
D02*
G37*
G36*
X277000Y456964D02*
Y454000D01*
X279964D01*
X279910Y454414D01*
X279557Y455265D01*
X278996Y455996D01*
X278265Y456557D01*
X277414Y456910D01*
X277000Y456964D01*
D02*
G37*
G36*
X276000D02*
X275586Y456910D01*
X274735Y456557D01*
X274004Y455996D01*
X273443Y455265D01*
X273090Y454414D01*
X273036Y454000D01*
X276000D01*
Y456964D01*
D02*
G37*
G36*
X286500Y457453D02*
X283047D01*
Y454000D01*
X286500D01*
Y457453D01*
D02*
G37*
G36*
X178500Y457530D02*
X177586Y457410D01*
X176735Y457057D01*
X176004Y456496D01*
X175443Y455765D01*
X175090Y454914D01*
X174970Y454000D01*
X175090Y453086D01*
X175188Y452851D01*
X174919Y452581D01*
X174587Y452085D01*
X174471Y451500D01*
Y377655D01*
X174235Y377557D01*
X173504Y376996D01*
X172943Y376265D01*
X172590Y375414D01*
X172470Y374500D01*
X172590Y373586D01*
X172943Y372735D01*
X173504Y372004D01*
X174235Y371443D01*
X175086Y371090D01*
X176000Y370970D01*
X176691Y371061D01*
X176924Y370587D01*
X168404Y362067D01*
X167765Y362557D01*
X166914Y362910D01*
X166000Y363030D01*
X165086Y362910D01*
X164235Y362557D01*
X163504Y361996D01*
X162943Y361265D01*
X162590Y360414D01*
X162470Y359500D01*
X162590Y358586D01*
X162943Y357735D01*
X163504Y357004D01*
X164235Y356443D01*
X165086Y356090D01*
X166000Y355970D01*
X166914Y356090D01*
X167765Y356443D01*
X168496Y357004D01*
X169057Y357735D01*
X169410Y358586D01*
X169434Y358771D01*
X183581Y372919D01*
X183913Y373415D01*
X183971Y373705D01*
X184471Y373655D01*
Y360655D01*
X184235Y360557D01*
X183504Y359996D01*
X182943Y359265D01*
X182590Y358414D01*
X182470Y357500D01*
X182590Y356586D01*
X182943Y355735D01*
X183504Y355004D01*
X184235Y354443D01*
X185086Y354090D01*
X186000Y353970D01*
X186914Y354090D01*
X187765Y354443D01*
X188496Y355004D01*
X189057Y355735D01*
X189410Y356586D01*
X189530Y357500D01*
X189410Y358414D01*
X189057Y359265D01*
X188496Y359996D01*
X187765Y360557D01*
X187529Y360655D01*
Y426260D01*
X202240Y440971D01*
X206077D01*
X206175Y440735D01*
X206736Y440004D01*
X207467Y439443D01*
X208319Y439090D01*
X209232Y438970D01*
X210146Y439090D01*
X210997Y439443D01*
X211729Y440004D01*
X212290Y440735D01*
X212642Y441586D01*
X212762Y442500D01*
X212642Y443414D01*
X212290Y444265D01*
X212092Y444522D01*
X212313Y444971D01*
X215866D01*
X217188Y443649D01*
X217090Y443414D01*
X216970Y442500D01*
X217090Y441586D01*
X217443Y440735D01*
X218004Y440004D01*
X218735Y439443D01*
X219586Y439090D01*
X220500Y438970D01*
X221414Y439090D01*
X222265Y439443D01*
X222996Y440004D01*
X223557Y440735D01*
X223910Y441586D01*
X224030Y442500D01*
X223910Y443414D01*
X223557Y444265D01*
X222996Y444996D01*
X222265Y445557D01*
X221414Y445910D01*
X220500Y446030D01*
X219586Y445910D01*
X219351Y445812D01*
X217581Y447581D01*
X217085Y447913D01*
X216500Y448029D01*
X200500D01*
X199915Y447913D01*
X199419Y447581D01*
X181419Y429581D01*
X181087Y429085D01*
X180971Y428500D01*
Y374634D01*
X179913Y373576D01*
X179439Y373809D01*
X179530Y374500D01*
X179410Y375414D01*
X179057Y376265D01*
X178496Y376996D01*
X177765Y377557D01*
X177529Y377655D01*
Y450093D01*
X178029Y450532D01*
X178500Y450470D01*
X179414Y450590D01*
X180265Y450943D01*
X180996Y451504D01*
X181557Y452235D01*
X181910Y453086D01*
X182030Y454000D01*
X181910Y454914D01*
X181557Y455765D01*
X180996Y456496D01*
X180265Y457057D01*
X179414Y457410D01*
X178500Y457530D01*
D02*
G37*
G36*
X279964Y453000D02*
X277000D01*
Y450036D01*
X277414Y450090D01*
X278265Y450443D01*
X278996Y451004D01*
X279557Y451735D01*
X279910Y452586D01*
X279964Y453000D01*
D02*
G37*
G36*
X276000D02*
X273036D01*
X273090Y452586D01*
X273443Y451735D01*
X274004Y451004D01*
X274735Y450443D01*
X275586Y450090D01*
X276000Y450036D01*
Y453000D01*
D02*
G37*
G36*
X290953D02*
X287500D01*
Y449547D01*
X290953D01*
Y453000D01*
D02*
G37*
G36*
X286500D02*
X283047D01*
Y449547D01*
X286500D01*
Y453000D01*
D02*
G37*
G36*
X153000Y449464D02*
Y446500D01*
X155964D01*
X155910Y446914D01*
X155557Y447765D01*
X154996Y448496D01*
X154265Y449057D01*
X153414Y449410D01*
X153000Y449464D01*
D02*
G37*
G36*
X152000D02*
X151586Y449410D01*
X150735Y449057D01*
X150004Y448496D01*
X149443Y447765D01*
X149090Y446914D01*
X149036Y446500D01*
X152000D01*
Y449464D01*
D02*
G37*
G36*
X155964Y445500D02*
X153000D01*
Y442536D01*
X153414Y442590D01*
X154265Y442943D01*
X154996Y443504D01*
X155557Y444235D01*
X155910Y445086D01*
X155964Y445500D01*
D02*
G37*
G36*
X152000D02*
X149036D01*
X149090Y445086D01*
X149443Y444235D01*
X150004Y443504D01*
X150735Y442943D01*
X151586Y442590D01*
X152000Y442536D01*
Y445500D01*
D02*
G37*
G36*
X287000Y447487D02*
X285968Y447351D01*
X285007Y446953D01*
X284181Y446319D01*
X283547Y445493D01*
X283149Y444532D01*
X283013Y443500D01*
X283149Y442468D01*
X283547Y441507D01*
X284181Y440681D01*
X285007Y440047D01*
X285968Y439649D01*
X287000Y439513D01*
X288032Y439649D01*
X288993Y440047D01*
X289819Y440681D01*
X290453Y441507D01*
X290851Y442468D01*
X290987Y443500D01*
X290851Y444532D01*
X290453Y445493D01*
X289819Y446319D01*
X288993Y446953D01*
X288032Y447351D01*
X287000Y447487D01*
D02*
G37*
G36*
X114284Y441964D02*
Y439000D01*
X117248D01*
X117193Y439414D01*
X116841Y440265D01*
X116280Y440996D01*
X115549Y441557D01*
X114697Y441910D01*
X114284Y441964D01*
D02*
G37*
G36*
X113284D02*
X112870Y441910D01*
X112018Y441557D01*
X111287Y440996D01*
X110726Y440265D01*
X110374Y439414D01*
X110319Y439000D01*
X113284D01*
Y441964D01*
D02*
G37*
G36*
X117248Y438000D02*
X114284D01*
Y435036D01*
X114697Y435090D01*
X115549Y435443D01*
X116280Y436004D01*
X116841Y436735D01*
X117193Y437586D01*
X117248Y438000D01*
D02*
G37*
G36*
X113284D02*
X110319D01*
X110374Y437586D01*
X110726Y436735D01*
X111287Y436004D01*
X112018Y435443D01*
X112870Y435090D01*
X113284Y435036D01*
Y438000D01*
D02*
G37*
G36*
X270374Y449030D02*
X269460Y448910D01*
X268609Y448557D01*
X267878Y447996D01*
X267317Y447265D01*
X267219Y447029D01*
X264500D01*
X263915Y446913D01*
X263419Y446581D01*
X251419Y434581D01*
X251087Y434085D01*
X250971Y433500D01*
Y426155D01*
X250735Y426057D01*
X250004Y425496D01*
X249443Y424765D01*
X249090Y423914D01*
X248970Y423000D01*
X249090Y422086D01*
X249443Y421235D01*
X250004Y420504D01*
X250735Y419943D01*
X251586Y419590D01*
X252500Y419470D01*
X253414Y419590D01*
X254265Y419943D01*
X254996Y420504D01*
X255557Y421235D01*
X255910Y422086D01*
X256030Y423000D01*
X255910Y423914D01*
X255557Y424765D01*
X254996Y425496D01*
X254265Y426057D01*
X254029Y426155D01*
Y432866D01*
X265134Y443971D01*
X267219D01*
X267317Y443735D01*
X267878Y443004D01*
X268609Y442443D01*
X268971Y442293D01*
Y437655D01*
X268735Y437557D01*
X268004Y436996D01*
X267443Y436265D01*
X267090Y435414D01*
X266970Y434500D01*
X267090Y433586D01*
X267443Y432735D01*
X268004Y432004D01*
X268735Y431443D01*
X269586Y431090D01*
X270500Y430970D01*
X271414Y431090D01*
X272265Y431443D01*
X272996Y432004D01*
X273557Y432735D01*
X273910Y433586D01*
X274030Y434500D01*
X273910Y435414D01*
X273557Y436265D01*
X272996Y436996D01*
X272265Y437557D01*
X272029Y437655D01*
Y442397D01*
X272139Y442443D01*
X272870Y443004D01*
X273431Y443735D01*
X273784Y444586D01*
X273904Y445500D01*
X273784Y446414D01*
X273431Y447265D01*
X272870Y447996D01*
X272139Y448557D01*
X271288Y448910D01*
X270374Y449030D01*
D02*
G37*
G36*
X287000Y437487D02*
X285968Y437351D01*
X285007Y436953D01*
X284181Y436319D01*
X283547Y435493D01*
X283149Y434532D01*
X283013Y433500D01*
X283149Y432468D01*
X283547Y431507D01*
X284181Y430681D01*
X285007Y430047D01*
X285968Y429649D01*
X287000Y429513D01*
X288032Y429649D01*
X288993Y430047D01*
X289819Y430681D01*
X290453Y431507D01*
X290851Y432468D01*
X290987Y433500D01*
X290851Y434532D01*
X290453Y435493D01*
X289819Y436319D01*
X288993Y436953D01*
X288032Y437351D01*
X287000Y437487D01*
D02*
G37*
G36*
X114047Y424512D02*
Y421547D01*
X117012D01*
X116957Y421961D01*
X116604Y422812D01*
X116043Y423544D01*
X115312Y424104D01*
X114461Y424457D01*
X114047Y424512D01*
D02*
G37*
G36*
X113047D02*
X112634Y424457D01*
X111782Y424104D01*
X111051Y423544D01*
X110490Y422812D01*
X110137Y421961D01*
X110083Y421547D01*
X113047D01*
Y424512D01*
D02*
G37*
G36*
X287000Y427487D02*
X285968Y427351D01*
X285007Y426953D01*
X284181Y426319D01*
X283547Y425493D01*
X283149Y424532D01*
X283013Y423500D01*
X283149Y422468D01*
X283547Y421507D01*
X284181Y420681D01*
X285007Y420047D01*
X285968Y419649D01*
X287000Y419513D01*
X288032Y419649D01*
X288993Y420047D01*
X289819Y420681D01*
X290453Y421507D01*
X290851Y422468D01*
X290987Y423500D01*
X290851Y424532D01*
X290453Y425493D01*
X289819Y426319D01*
X288993Y426953D01*
X288032Y427351D01*
X287000Y427487D01*
D02*
G37*
G36*
X117012Y420547D02*
X114047D01*
Y417583D01*
X114461Y417637D01*
X115312Y417990D01*
X116043Y418551D01*
X116604Y419282D01*
X116957Y420134D01*
X117012Y420547D01*
D02*
G37*
G36*
X113047D02*
X110083D01*
X110137Y420134D01*
X110490Y419282D01*
X111051Y418551D01*
X111782Y417990D01*
X112634Y417637D01*
X113047Y417583D01*
Y420547D01*
D02*
G37*
G36*
X253000Y410964D02*
Y408000D01*
X255964D01*
X255910Y408414D01*
X255557Y409265D01*
X254996Y409996D01*
X254265Y410557D01*
X253414Y410910D01*
X253000Y410964D01*
D02*
G37*
G36*
X252000D02*
X251586Y410910D01*
X250735Y410557D01*
X250004Y409996D01*
X249443Y409265D01*
X249090Y408414D01*
X249036Y408000D01*
X252000D01*
Y410964D01*
D02*
G37*
G36*
X114000D02*
Y408000D01*
X116964D01*
X116910Y408414D01*
X116557Y409265D01*
X115996Y409996D01*
X115265Y410557D01*
X114414Y410910D01*
X114000Y410964D01*
D02*
G37*
G36*
X113000D02*
X112586Y410910D01*
X111735Y410557D01*
X111004Y409996D01*
X110443Y409265D01*
X110090Y408414D01*
X110036Y408000D01*
X113000D01*
Y410964D01*
D02*
G37*
G36*
X255964Y407000D02*
X253000D01*
Y404036D01*
X253414Y404090D01*
X254265Y404443D01*
X254996Y405004D01*
X255557Y405735D01*
X255910Y406586D01*
X255964Y407000D01*
D02*
G37*
G36*
X252000D02*
X249036D01*
X249090Y406586D01*
X249443Y405735D01*
X250004Y405004D01*
X250735Y404443D01*
X251586Y404090D01*
X252000Y404036D01*
Y407000D01*
D02*
G37*
G36*
X116964D02*
X114000D01*
Y404036D01*
X114414Y404090D01*
X115265Y404443D01*
X115996Y405004D01*
X116557Y405735D01*
X116910Y406586D01*
X116964Y407000D01*
D02*
G37*
G36*
X113000D02*
X110036D01*
X110090Y406586D01*
X110443Y405735D01*
X111004Y405004D01*
X111735Y404443D01*
X112586Y404090D01*
X113000Y404036D01*
Y407000D01*
D02*
G37*
G36*
X114000Y396464D02*
Y393500D01*
X116964D01*
X116910Y393914D01*
X116557Y394765D01*
X115996Y395496D01*
X115265Y396057D01*
X114414Y396410D01*
X114000Y396464D01*
D02*
G37*
G36*
X113000D02*
X112586Y396410D01*
X111735Y396057D01*
X111004Y395496D01*
X110443Y394765D01*
X110090Y393914D01*
X110036Y393500D01*
X113000D01*
Y396464D01*
D02*
G37*
G36*
X164815Y392649D02*
Y389685D01*
X167779D01*
X167725Y390099D01*
X167372Y390950D01*
X166811Y391681D01*
X166080Y392242D01*
X165229Y392595D01*
X164815Y392649D01*
D02*
G37*
G36*
X163815D02*
X163401Y392595D01*
X162550Y392242D01*
X161819Y391681D01*
X161258Y390950D01*
X160905Y390099D01*
X160851Y389685D01*
X163815D01*
Y392649D01*
D02*
G37*
G36*
X116964Y392500D02*
X114000D01*
Y389536D01*
X114414Y389590D01*
X115265Y389943D01*
X115996Y390504D01*
X116557Y391235D01*
X116910Y392086D01*
X116964Y392500D01*
D02*
G37*
G36*
X113000D02*
X110036D01*
X110090Y392086D01*
X110443Y391235D01*
X111004Y390504D01*
X111735Y389943D01*
X112586Y389590D01*
X113000Y389536D01*
Y392500D01*
D02*
G37*
G36*
X237000Y389964D02*
Y387000D01*
X239964D01*
X239910Y387414D01*
X239557Y388265D01*
X238996Y388996D01*
X238265Y389557D01*
X237414Y389910D01*
X237000Y389964D01*
D02*
G37*
G36*
X236000D02*
X235586Y389910D01*
X234735Y389557D01*
X234004Y388996D01*
X233443Y388265D01*
X233090Y387414D01*
X233036Y387000D01*
X236000D01*
Y389964D01*
D02*
G37*
G36*
X167779Y388685D02*
X164815D01*
Y385721D01*
X165229Y385775D01*
X166080Y386128D01*
X166811Y386689D01*
X167372Y387420D01*
X167725Y388271D01*
X167779Y388685D01*
D02*
G37*
G36*
X163815D02*
X160851D01*
X160905Y388271D01*
X161258Y387420D01*
X161819Y386689D01*
X162550Y386128D01*
X163401Y385775D01*
X163815Y385721D01*
Y388685D01*
D02*
G37*
G36*
X239964Y386000D02*
X237000D01*
Y383036D01*
X237414Y383090D01*
X238265Y383443D01*
X238996Y384004D01*
X239557Y384735D01*
X239910Y385586D01*
X239964Y386000D01*
D02*
G37*
G36*
X236000D02*
X233036D01*
X233090Y385586D01*
X233443Y384735D01*
X234004Y384004D01*
X234735Y383443D01*
X235586Y383090D01*
X236000Y383036D01*
Y386000D01*
D02*
G37*
G36*
X114047Y381964D02*
Y379000D01*
X117012D01*
X116957Y379414D01*
X116604Y380265D01*
X116043Y380996D01*
X115312Y381557D01*
X114461Y381910D01*
X114047Y381964D01*
D02*
G37*
G36*
X113047D02*
X112634Y381910D01*
X111782Y381557D01*
X111051Y380996D01*
X110490Y380265D01*
X110137Y379414D01*
X110083Y379000D01*
X113047D01*
Y381964D01*
D02*
G37*
G36*
X297091Y380524D02*
Y377500D01*
X300114D01*
X300058Y377929D01*
X299699Y378795D01*
X299129Y379538D01*
X298385Y380109D01*
X297520Y380467D01*
X297091Y380524D01*
D02*
G37*
G36*
X287559Y380464D02*
Y377500D01*
X290523D01*
X290469Y377914D01*
X290116Y378765D01*
X289555Y379496D01*
X288824Y380057D01*
X287973Y380410D01*
X287559Y380464D01*
D02*
G37*
G36*
X286559D02*
X286145Y380410D01*
X285294Y380057D01*
X284563Y379496D01*
X284002Y378765D01*
X283649Y377914D01*
X283595Y377500D01*
X286559D01*
Y380464D01*
D02*
G37*
G36*
X296091Y380524D02*
X295661Y380467D01*
X294796Y380109D01*
X294052Y379538D01*
X293482Y378795D01*
X293123Y377929D01*
X293067Y377500D01*
X296091D01*
Y380524D01*
D02*
G37*
G36*
X117012Y378000D02*
X114047D01*
Y375036D01*
X114461Y375090D01*
X115312Y375443D01*
X116043Y376004D01*
X116604Y376735D01*
X116957Y377586D01*
X117012Y378000D01*
D02*
G37*
G36*
X113047D02*
X110083D01*
X110137Y377586D01*
X110490Y376735D01*
X111051Y376004D01*
X111782Y375443D01*
X112634Y375090D01*
X113047Y375036D01*
Y378000D01*
D02*
G37*
G36*
X290523Y376500D02*
X287559D01*
Y373536D01*
X287973Y373590D01*
X288824Y373943D01*
X289555Y374504D01*
X290116Y375235D01*
X290469Y376086D01*
X290523Y376500D01*
D02*
G37*
G36*
X286559D02*
X283595D01*
X283649Y376086D01*
X284002Y375235D01*
X284563Y374504D01*
X285294Y373943D01*
X286145Y373590D01*
X286559Y373536D01*
Y376500D01*
D02*
G37*
G36*
X300114D02*
X297091D01*
Y373476D01*
X297520Y373533D01*
X298385Y373891D01*
X299129Y374462D01*
X299699Y375205D01*
X300058Y376071D01*
X300114Y376500D01*
D02*
G37*
G36*
X296091D02*
X293067D01*
X293123Y376071D01*
X293482Y375205D01*
X294052Y374462D01*
X294796Y373891D01*
X295661Y373533D01*
X296091Y373476D01*
Y376500D01*
D02*
G37*
G36*
X271000Y380590D02*
X270071Y380467D01*
X269205Y380109D01*
X268462Y379538D01*
X267891Y378795D01*
X267533Y377929D01*
X267410Y377000D01*
X267533Y376071D01*
X267891Y375205D01*
X268462Y374462D01*
X269205Y373891D01*
X270071Y373533D01*
X271000Y373410D01*
X271929Y373533D01*
X272795Y373891D01*
X273538Y374462D01*
X274109Y375205D01*
X274467Y376071D01*
X274590Y377000D01*
X274467Y377929D01*
X274109Y378795D01*
X273538Y379538D01*
X272795Y380109D01*
X271929Y380467D01*
X271000Y380590D01*
D02*
G37*
G36*
X221000Y427030D02*
X220086Y426910D01*
X219235Y426557D01*
X218504Y425996D01*
X217943Y425265D01*
X217590Y424414D01*
X217470Y423500D01*
X217590Y422586D01*
X217943Y421735D01*
X218504Y421004D01*
X219235Y420443D01*
X219471Y420345D01*
Y402000D01*
X219587Y401415D01*
X219919Y400919D01*
X221471Y399366D01*
Y377655D01*
X221235Y377557D01*
X220504Y376996D01*
X219943Y376265D01*
X219590Y375414D01*
X219470Y374500D01*
X219590Y373586D01*
X219943Y372735D01*
X220504Y372004D01*
X221235Y371443D01*
X222086Y371090D01*
X223000Y370970D01*
X223914Y371090D01*
X224765Y371443D01*
X225496Y372004D01*
X226057Y372735D01*
X226410Y373586D01*
X226530Y374500D01*
X226410Y375414D01*
X226057Y376265D01*
X225496Y376996D01*
X224765Y377557D01*
X224529Y377655D01*
Y400000D01*
X224413Y400585D01*
X224081Y401081D01*
X222529Y402633D01*
Y420345D01*
X222765Y420443D01*
X223496Y421004D01*
X224057Y421735D01*
X224410Y422586D01*
X224530Y423500D01*
X224410Y424414D01*
X224057Y425265D01*
X223496Y425996D01*
X222765Y426557D01*
X221914Y426910D01*
X221000Y427030D01*
D02*
G37*
G36*
X114047Y367964D02*
Y365000D01*
X117012D01*
X116957Y365414D01*
X116604Y366265D01*
X116043Y366996D01*
X115312Y367557D01*
X114461Y367910D01*
X114047Y367964D01*
D02*
G37*
G36*
X113047D02*
X112634Y367910D01*
X111782Y367557D01*
X111051Y366996D01*
X110490Y366265D01*
X110137Y365414D01*
X110083Y365000D01*
X113047D01*
Y367964D01*
D02*
G37*
G36*
X117012Y364000D02*
X114047D01*
Y361036D01*
X114461Y361090D01*
X115312Y361443D01*
X116043Y362004D01*
X116604Y362735D01*
X116957Y363586D01*
X117012Y364000D01*
D02*
G37*
G36*
X113047D02*
X110083D01*
X110137Y363586D01*
X110490Y362735D01*
X111051Y362004D01*
X111782Y361443D01*
X112634Y361090D01*
X113047Y361036D01*
Y364000D01*
D02*
G37*
G36*
X247000Y361964D02*
Y359000D01*
X249964D01*
X249910Y359414D01*
X249557Y360265D01*
X248996Y360996D01*
X248265Y361557D01*
X247414Y361910D01*
X247000Y361964D01*
D02*
G37*
G36*
X246000D02*
X245586Y361910D01*
X244735Y361557D01*
X244004Y360996D01*
X243443Y360265D01*
X243090Y359414D01*
X243036Y359000D01*
X246000D01*
Y361964D01*
D02*
G37*
G36*
X216453Y359453D02*
X213000D01*
Y356000D01*
X216453D01*
Y359453D01*
D02*
G37*
G36*
X212000D02*
X208547D01*
Y356000D01*
X212000D01*
Y359453D01*
D02*
G37*
G36*
X249964Y358000D02*
X247000D01*
Y355036D01*
X247414Y355090D01*
X248265Y355443D01*
X248996Y356004D01*
X249557Y356735D01*
X249910Y357586D01*
X249964Y358000D01*
D02*
G37*
G36*
X246000D02*
X243036D01*
X243090Y357586D01*
X243443Y356735D01*
X244004Y356004D01*
X244735Y355443D01*
X245586Y355090D01*
X246000Y355036D01*
Y358000D01*
D02*
G37*
G36*
X216453Y355000D02*
X213000D01*
Y351547D01*
X216453D01*
Y355000D01*
D02*
G37*
G36*
X212000D02*
X208547D01*
Y351547D01*
X212000D01*
Y355000D01*
D02*
G37*
G36*
X202500Y359487D02*
X201468Y359351D01*
X200507Y358953D01*
X199681Y358319D01*
X199047Y357493D01*
X198649Y356532D01*
X198513Y355500D01*
X198649Y354468D01*
X199047Y353507D01*
X199681Y352681D01*
X200507Y352047D01*
X201468Y351649D01*
X202500Y351513D01*
X203532Y351649D01*
X204493Y352047D01*
X205319Y352681D01*
X205953Y353507D01*
X206351Y354468D01*
X206487Y355500D01*
X206351Y356532D01*
X205953Y357493D01*
X205319Y358319D01*
X204493Y358953D01*
X203532Y359351D01*
X202500Y359487D01*
D02*
G37*
G36*
X114000Y353964D02*
Y351000D01*
X116964D01*
X116910Y351414D01*
X116557Y352265D01*
X115996Y352996D01*
X115265Y353557D01*
X114414Y353910D01*
X114000Y353964D01*
D02*
G37*
G36*
X113000D02*
X112586Y353910D01*
X111735Y353557D01*
X111004Y352996D01*
X110443Y352265D01*
X110090Y351414D01*
X110036Y351000D01*
X113000D01*
Y353964D01*
D02*
G37*
G36*
X116964Y350000D02*
X114000D01*
Y347036D01*
X114414Y347090D01*
X115265Y347443D01*
X115996Y348004D01*
X116557Y348735D01*
X116910Y349586D01*
X116964Y350000D01*
D02*
G37*
G36*
X113000D02*
X110036D01*
X110090Y349586D01*
X110443Y348735D01*
X111004Y348004D01*
X111735Y347443D01*
X112586Y347090D01*
X113000Y347036D01*
Y350000D01*
D02*
G37*
G36*
X218736Y347964D02*
Y345000D01*
X221700D01*
X221645Y345414D01*
X221293Y346265D01*
X220732Y346996D01*
X220001Y347557D01*
X219149Y347910D01*
X218736Y347964D01*
D02*
G37*
G36*
X217736D02*
X217322Y347910D01*
X216470Y347557D01*
X215739Y346996D01*
X215178Y346265D01*
X214826Y345414D01*
X214771Y345000D01*
X217736D01*
Y347964D01*
D02*
G37*
G36*
X221700Y344000D02*
X218736D01*
Y341036D01*
X219149Y341090D01*
X220001Y341443D01*
X220732Y342004D01*
X221293Y342735D01*
X221645Y343586D01*
X221700Y344000D01*
D02*
G37*
G36*
X217736D02*
X214771D01*
X214826Y343586D01*
X215178Y342735D01*
X215739Y342004D01*
X216470Y341443D01*
X217322Y341090D01*
X217736Y341036D01*
Y344000D01*
D02*
G37*
G36*
X192000Y343464D02*
Y340500D01*
X194964D01*
X194910Y340914D01*
X194557Y341765D01*
X193996Y342496D01*
X193265Y343057D01*
X192414Y343410D01*
X192000Y343464D01*
D02*
G37*
G36*
X191000D02*
X190586Y343410D01*
X189735Y343057D01*
X189004Y342496D01*
X188443Y341765D01*
X188090Y340914D01*
X188036Y340500D01*
X191000D01*
Y343464D01*
D02*
G37*
G36*
X140500Y433030D02*
X139586Y432910D01*
X138735Y432557D01*
X138004Y431996D01*
X137443Y431265D01*
X137090Y430414D01*
X136970Y429500D01*
X137090Y428586D01*
X137443Y427735D01*
X138004Y427004D01*
X138735Y426443D01*
X138971Y426345D01*
Y346351D01*
X138235Y346047D01*
X137504Y345486D01*
X136943Y344755D01*
X136590Y343903D01*
X136470Y342989D01*
X136590Y342076D01*
X136943Y341224D01*
X137504Y340493D01*
X138235Y339932D01*
X139086Y339579D01*
X140000Y339459D01*
X140914Y339579D01*
X141765Y339932D01*
X142496Y340493D01*
X143057Y341224D01*
X143410Y342076D01*
X143530Y342989D01*
X143410Y343903D01*
X143057Y344755D01*
X142496Y345486D01*
X142029Y345844D01*
Y426345D01*
X142265Y426443D01*
X142996Y427004D01*
X143557Y427735D01*
X143910Y428586D01*
X144030Y429500D01*
X143910Y430414D01*
X143557Y431265D01*
X142996Y431996D01*
X142265Y432557D01*
X141414Y432910D01*
X140500Y433030D01*
D02*
G37*
G36*
X194964Y339500D02*
X192000D01*
Y336536D01*
X192414Y336590D01*
X193265Y336943D01*
X193996Y337504D01*
X194557Y338235D01*
X194910Y339086D01*
X194964Y339500D01*
D02*
G37*
G36*
X191000D02*
X188036D01*
X188090Y339086D01*
X188443Y338235D01*
X189004Y337504D01*
X189735Y336943D01*
X190586Y336590D01*
X191000Y336536D01*
Y339500D01*
D02*
G37*
G36*
X139500Y460530D02*
X138586Y460410D01*
X137735Y460057D01*
X137004Y459496D01*
X136443Y458765D01*
X136090Y457914D01*
X135970Y457000D01*
X136090Y456086D01*
X136443Y455235D01*
X137004Y454504D01*
X137735Y453943D01*
X137971Y453845D01*
Y441512D01*
X138087Y440927D01*
X138419Y440431D01*
X143514Y435336D01*
X143470Y435000D01*
X143590Y434086D01*
X143943Y433235D01*
X144504Y432504D01*
X145235Y431943D01*
X146086Y431590D01*
X146471Y431539D01*
Y398655D01*
X146235Y398557D01*
X145504Y397996D01*
X144943Y397265D01*
X144590Y396414D01*
X144470Y395500D01*
X144590Y394586D01*
X144943Y393735D01*
X145504Y393004D01*
X146235Y392443D01*
X146471Y392345D01*
Y326095D01*
X146587Y325510D01*
X146908Y325029D01*
X146866Y324810D01*
X146750Y324529D01*
X116336D01*
X116238Y324765D01*
X115677Y325496D01*
X114946Y326057D01*
X114095Y326410D01*
X113181Y326530D01*
X112267Y326410D01*
X111416Y326057D01*
X110685Y325496D01*
X110124Y324765D01*
X109771Y323914D01*
X109651Y323000D01*
X109771Y322086D01*
X110124Y321235D01*
X110685Y320504D01*
X111416Y319943D01*
X112267Y319590D01*
X113181Y319470D01*
X114095Y319590D01*
X114946Y319943D01*
X115677Y320504D01*
X116238Y321235D01*
X116336Y321471D01*
X196438D01*
X196567Y320971D01*
X195949Y320496D01*
X195388Y319765D01*
X195035Y318914D01*
X194981Y318500D01*
X201909D01*
X201855Y318914D01*
X201502Y319765D01*
X200941Y320496D01*
X200323Y320971D01*
X200452Y321471D01*
X209345D01*
X209443Y321235D01*
X210004Y320504D01*
X210735Y319943D01*
X211586Y319590D01*
X212500Y319470D01*
X213414Y319590D01*
X214265Y319943D01*
X214996Y320504D01*
X215557Y321235D01*
X215910Y322086D01*
X216030Y323000D01*
X215910Y323914D01*
X215812Y324149D01*
X229952Y338289D01*
X303841D01*
X303939Y338054D01*
X304500Y337323D01*
X305231Y336762D01*
X306082Y336409D01*
X306996Y336289D01*
X307910Y336409D01*
X308761Y336762D01*
X309492Y337323D01*
X310053Y338054D01*
X310406Y338905D01*
X310526Y339819D01*
X310406Y340733D01*
X310053Y341584D01*
X309492Y342315D01*
X308761Y342876D01*
X307910Y343229D01*
X306996Y343349D01*
X306082Y343229D01*
X305231Y342876D01*
X304500Y342315D01*
X303939Y341584D01*
X303841Y341348D01*
X229319D01*
X228734Y341232D01*
X228237Y340900D01*
X213649Y326312D01*
X213414Y326410D01*
X212500Y326530D01*
X211586Y326410D01*
X210735Y326057D01*
X210004Y325496D01*
X209443Y324765D01*
X209345Y324529D01*
X151729D01*
X149529Y326729D01*
Y392345D01*
X149765Y392443D01*
X150496Y393004D01*
X151057Y393735D01*
X151410Y394586D01*
X151530Y395500D01*
X151410Y396414D01*
X151057Y397265D01*
X150496Y397996D01*
X149765Y398557D01*
X149529Y398655D01*
Y432547D01*
X150057Y433235D01*
X150410Y434086D01*
X150530Y435000D01*
X150410Y435914D01*
X150057Y436765D01*
X149496Y437496D01*
X148765Y438057D01*
X147914Y438410D01*
X147000Y438530D01*
X146086Y438410D01*
X145235Y438057D01*
X145169Y438007D01*
X141029Y442146D01*
Y453845D01*
X141265Y453943D01*
X141996Y454504D01*
X142557Y455235D01*
X142910Y456086D01*
X143030Y457000D01*
X142910Y457914D01*
X142557Y458765D01*
X141996Y459496D01*
X141265Y460057D01*
X140414Y460410D01*
X139500Y460530D01*
D02*
G37*
G36*
X297496Y335740D02*
Y332319D01*
X300917D01*
X300847Y332851D01*
X300449Y333812D01*
X299815Y334638D01*
X298990Y335272D01*
X298028Y335670D01*
X297496Y335740D01*
D02*
G37*
G36*
X296496D02*
X295964Y335670D01*
X295003Y335272D01*
X294177Y334638D01*
X293543Y333812D01*
X293145Y332851D01*
X293075Y332319D01*
X296496D01*
Y335740D01*
D02*
G37*
G36*
X300917Y331319D02*
X297496D01*
Y327898D01*
X298028Y327968D01*
X298990Y328366D01*
X299815Y329000D01*
X300449Y329825D01*
X300847Y330787D01*
X300917Y331319D01*
D02*
G37*
G36*
X296496D02*
X293075D01*
X293145Y330787D01*
X293543Y329825D01*
X294177Y329000D01*
X295003Y328366D01*
X295964Y327968D01*
X296496Y327898D01*
Y331319D01*
D02*
G37*
G36*
X310949Y335772D02*
X303043D01*
Y327866D01*
X310949D01*
Y335772D01*
D02*
G37*
G36*
X286996Y335806D02*
X285964Y335670D01*
X285003Y335272D01*
X284177Y334638D01*
X283543Y333812D01*
X283145Y332851D01*
X283009Y331819D01*
X283145Y330787D01*
X283543Y329825D01*
X284177Y329000D01*
X285003Y328366D01*
X285964Y327968D01*
X286996Y327832D01*
X288028Y327968D01*
X288989Y328366D01*
X289815Y329000D01*
X290449Y329825D01*
X290847Y330787D01*
X290983Y331819D01*
X290847Y332851D01*
X290449Y333812D01*
X289815Y334638D01*
X288989Y335272D01*
X288028Y335670D01*
X286996Y335806D01*
D02*
G37*
G36*
X276996D02*
X275964Y335670D01*
X275003Y335272D01*
X274177Y334638D01*
X273543Y333812D01*
X273145Y332851D01*
X273009Y331819D01*
X273145Y330787D01*
X273543Y329825D01*
X274177Y329000D01*
X275003Y328366D01*
X275964Y327968D01*
X276996Y327832D01*
X278028Y327968D01*
X278990Y328366D01*
X279815Y329000D01*
X280449Y329825D01*
X280847Y330787D01*
X280983Y331819D01*
X280847Y332851D01*
X280449Y333812D01*
X279815Y334638D01*
X278990Y335272D01*
X278028Y335670D01*
X276996Y335806D01*
D02*
G37*
G36*
X266996D02*
X265964Y335670D01*
X265003Y335272D01*
X264177Y334638D01*
X263543Y333812D01*
X263145Y332851D01*
X263009Y331819D01*
X263145Y330787D01*
X263543Y329825D01*
X264177Y329000D01*
X265003Y328366D01*
X265964Y327968D01*
X266996Y327832D01*
X268028Y327968D01*
X268989Y328366D01*
X269815Y329000D01*
X270449Y329825D01*
X270847Y330787D01*
X270983Y331819D01*
X270847Y332851D01*
X270449Y333812D01*
X269815Y334638D01*
X268989Y335272D01*
X268028Y335670D01*
X266996Y335806D01*
D02*
G37*
G36*
X256996D02*
X255964Y335670D01*
X255003Y335272D01*
X254177Y334638D01*
X253543Y333812D01*
X253145Y332851D01*
X253009Y331819D01*
X253145Y330787D01*
X253543Y329825D01*
X254177Y329000D01*
X255003Y328366D01*
X255964Y327968D01*
X256996Y327832D01*
X258028Y327968D01*
X258990Y328366D01*
X259815Y329000D01*
X260449Y329825D01*
X260847Y330787D01*
X260983Y331819D01*
X260847Y332851D01*
X260449Y333812D01*
X259815Y334638D01*
X258990Y335272D01*
X258028Y335670D01*
X256996Y335806D01*
D02*
G37*
G36*
X246996D02*
X245964Y335670D01*
X245003Y335272D01*
X244177Y334638D01*
X243543Y333812D01*
X243145Y332851D01*
X243009Y331819D01*
X243145Y330787D01*
X243543Y329825D01*
X244177Y329000D01*
X245003Y328366D01*
X245964Y327968D01*
X246996Y327832D01*
X248028Y327968D01*
X248990Y328366D01*
X249815Y329000D01*
X250449Y329825D01*
X250847Y330787D01*
X250983Y331819D01*
X250847Y332851D01*
X250449Y333812D01*
X249815Y334638D01*
X248990Y335272D01*
X248028Y335670D01*
X246996Y335806D01*
D02*
G37*
G36*
X236996D02*
X235964Y335670D01*
X235003Y335272D01*
X234177Y334638D01*
X233543Y333812D01*
X233145Y332851D01*
X233009Y331819D01*
X233145Y330787D01*
X233543Y329825D01*
X234177Y329000D01*
X235003Y328366D01*
X235964Y327968D01*
X236996Y327832D01*
X238028Y327968D01*
X238989Y328366D01*
X239815Y329000D01*
X240449Y329825D01*
X240847Y330787D01*
X240983Y331819D01*
X240847Y332851D01*
X240449Y333812D01*
X239815Y334638D01*
X238989Y335272D01*
X238028Y335670D01*
X236996Y335806D01*
D02*
G37*
G36*
X297496Y326283D02*
Y323319D01*
X300460D01*
X300406Y323733D01*
X300053Y324584D01*
X299492Y325315D01*
X298761Y325876D01*
X297910Y326229D01*
X297496Y326283D01*
D02*
G37*
G36*
X296496D02*
X296082Y326229D01*
X295231Y325876D01*
X294500Y325315D01*
X293939Y324584D01*
X293586Y323733D01*
X293532Y323319D01*
X296496D01*
Y326283D01*
D02*
G37*
G36*
X274500Y324464D02*
Y321500D01*
X277464D01*
X277410Y321914D01*
X277057Y322765D01*
X276496Y323496D01*
X275765Y324057D01*
X274914Y324410D01*
X274500Y324464D01*
D02*
G37*
G36*
X273500D02*
X273086Y324410D01*
X272235Y324057D01*
X271504Y323496D01*
X270943Y322765D01*
X270590Y321914D01*
X270536Y321500D01*
X273500D01*
Y324464D01*
D02*
G37*
G36*
X300460Y322319D02*
X297496D01*
Y319355D01*
X297910Y319409D01*
X298761Y319762D01*
X299492Y320323D01*
X300053Y321054D01*
X300406Y321905D01*
X300460Y322319D01*
D02*
G37*
G36*
X296496D02*
X293532D01*
X293586Y321905D01*
X293939Y321054D01*
X294500Y320323D01*
X295231Y319762D01*
X296082Y319409D01*
X296496Y319355D01*
Y322319D01*
D02*
G37*
G36*
X277464Y320500D02*
X274500D01*
Y317536D01*
X274914Y317590D01*
X275765Y317943D01*
X276496Y318504D01*
X277057Y319235D01*
X277410Y320086D01*
X277464Y320500D01*
D02*
G37*
G36*
X273500D02*
X270536D01*
X270590Y320086D01*
X270943Y319235D01*
X271504Y318504D01*
X272235Y317943D01*
X273086Y317590D01*
X273500Y317536D01*
Y320500D01*
D02*
G37*
G36*
X169500Y319964D02*
Y317000D01*
X172464D01*
X172410Y317414D01*
X172057Y318265D01*
X171496Y318996D01*
X170765Y319557D01*
X169914Y319910D01*
X169500Y319964D01*
D02*
G37*
G36*
X168500D02*
X168086Y319910D01*
X167235Y319557D01*
X166504Y318996D01*
X165943Y318265D01*
X165590Y317414D01*
X165536Y317000D01*
X168500D01*
Y319964D01*
D02*
G37*
G36*
X150985D02*
Y317000D01*
X153950D01*
X153895Y317414D01*
X153542Y318265D01*
X152981Y318996D01*
X152250Y319557D01*
X151399Y319910D01*
X150985Y319964D01*
D02*
G37*
G36*
X149985D02*
X149572Y319910D01*
X148720Y319557D01*
X147989Y318996D01*
X147428Y318265D01*
X147075Y317414D01*
X147021Y317000D01*
X149985D01*
Y319964D01*
D02*
G37*
G36*
X237996Y318783D02*
Y315819D01*
X240960D01*
X240906Y316233D01*
X240553Y317084D01*
X239992Y317815D01*
X239261Y318376D01*
X238410Y318729D01*
X237996Y318783D01*
D02*
G37*
G36*
X236996D02*
X236582Y318729D01*
X235731Y318376D01*
X235000Y317815D01*
X234439Y317084D01*
X234086Y316233D01*
X234032Y315819D01*
X236996D01*
Y318783D01*
D02*
G37*
G36*
X201909Y317500D02*
X198945D01*
Y314536D01*
X199359Y314590D01*
X200210Y314943D01*
X200941Y315504D01*
X201502Y316235D01*
X201855Y317086D01*
X201909Y317500D01*
D02*
G37*
G36*
X197945D02*
X194981D01*
X195035Y317086D01*
X195388Y316235D01*
X195949Y315504D01*
X196680Y314943D01*
X197531Y314590D01*
X197945Y314536D01*
Y317500D01*
D02*
G37*
G36*
X172464Y316000D02*
X169500D01*
Y313036D01*
X169914Y313090D01*
X170765Y313443D01*
X171496Y314004D01*
X172057Y314735D01*
X172410Y315586D01*
X172464Y316000D01*
D02*
G37*
G36*
X168500D02*
X165536D01*
X165590Y315586D01*
X165943Y314735D01*
X166504Y314004D01*
X167235Y313443D01*
X168086Y313090D01*
X168500Y313036D01*
Y316000D01*
D02*
G37*
G36*
X153950D02*
X150985D01*
Y313036D01*
X151399Y313090D01*
X152250Y313443D01*
X152981Y314004D01*
X153542Y314735D01*
X153895Y315586D01*
X153950Y316000D01*
D02*
G37*
G36*
X149985D02*
X147021D01*
X147075Y315586D01*
X147428Y314735D01*
X147989Y314004D01*
X148720Y313443D01*
X149572Y313090D01*
X149985Y313036D01*
Y316000D01*
D02*
G37*
G36*
X240960Y314819D02*
X237996D01*
Y311855D01*
X238410Y311909D01*
X239261Y312262D01*
X239992Y312823D01*
X240553Y313554D01*
X240906Y314405D01*
X240960Y314819D01*
D02*
G37*
G36*
X236996D02*
X234032D01*
X234086Y314405D01*
X234439Y313554D01*
X235000Y312823D01*
X235731Y312262D01*
X236582Y311909D01*
X236996Y311855D01*
Y314819D01*
D02*
G37*
G36*
X237996Y301283D02*
Y298319D01*
X240960D01*
X240906Y298733D01*
X240553Y299584D01*
X239992Y300315D01*
X239261Y300876D01*
X238410Y301229D01*
X237996Y301283D01*
D02*
G37*
G36*
X236996D02*
X236582Y301229D01*
X235731Y300876D01*
X235000Y300315D01*
X234439Y299584D01*
X234086Y298733D01*
X234032Y298319D01*
X236996D01*
Y301283D01*
D02*
G37*
G36*
X296811Y297968D02*
Y295004D01*
X299775D01*
X299721Y295418D01*
X299368Y296269D01*
X298807Y297000D01*
X298076Y297561D01*
X297225Y297914D01*
X296811Y297968D01*
D02*
G37*
G36*
X295811D02*
X295397Y297914D01*
X294546Y297561D01*
X293815Y297000D01*
X293254Y296269D01*
X292901Y295418D01*
X292847Y295004D01*
X295811D01*
Y297968D01*
D02*
G37*
G36*
X240960Y297319D02*
X237996D01*
Y294355D01*
X238410Y294409D01*
X239261Y294762D01*
X239992Y295323D01*
X240553Y296054D01*
X240906Y296905D01*
X240960Y297319D01*
D02*
G37*
G36*
X236996D02*
X234032D01*
X234086Y296905D01*
X234439Y296054D01*
X235000Y295323D01*
X235731Y294762D01*
X236582Y294409D01*
X236996Y294355D01*
Y297319D01*
D02*
G37*
G36*
X137328Y296530D02*
X136415Y296410D01*
X135563Y296057D01*
X135527Y296029D01*
X126000D01*
X125415Y295913D01*
X124919Y295581D01*
X123621Y294284D01*
X123265Y294557D01*
X122414Y294910D01*
X121500Y295030D01*
X120586Y294910D01*
X119735Y294557D01*
X119004Y293996D01*
X118443Y293265D01*
X118090Y292414D01*
X117970Y291500D01*
X118090Y290586D01*
X118443Y289735D01*
X119004Y289004D01*
X119735Y288443D01*
X120586Y288090D01*
X121500Y287970D01*
X122414Y288090D01*
X123265Y288443D01*
X123996Y289004D01*
X124557Y289735D01*
X124910Y290586D01*
X125010Y291347D01*
X126634Y292971D01*
X130174D01*
X130303Y292471D01*
X129685Y291996D01*
X129124Y291265D01*
X128771Y290414D01*
X128717Y290000D01*
X132181D01*
Y289500D01*
X132681D01*
Y286036D01*
X133095Y286090D01*
X133946Y286443D01*
X134677Y287004D01*
X135238Y287735D01*
X135591Y288586D01*
X135691Y289349D01*
X136134Y289706D01*
X136415Y289590D01*
X137328Y289470D01*
X138242Y289590D01*
X139093Y289943D01*
X139825Y290504D01*
X140386Y291235D01*
X140738Y292086D01*
X140859Y293000D01*
X140738Y293914D01*
X140386Y294765D01*
X139825Y295496D01*
X139093Y296057D01*
X138242Y296410D01*
X137328Y296530D01*
D02*
G37*
G36*
X299775Y294004D02*
X296811D01*
Y291040D01*
X297225Y291094D01*
X298076Y291447D01*
X298807Y292008D01*
X299368Y292739D01*
X299721Y293590D01*
X299775Y294004D01*
D02*
G37*
G36*
X295811D02*
X292847D01*
X292901Y293590D01*
X293254Y292739D01*
X293815Y292008D01*
X294546Y291447D01*
X295397Y291094D01*
X295811Y291040D01*
Y294004D01*
D02*
G37*
G36*
X276917Y293283D02*
Y290319D01*
X279882D01*
X279827Y290733D01*
X279475Y291584D01*
X278913Y292315D01*
X278182Y292876D01*
X277331Y293229D01*
X276917Y293283D01*
D02*
G37*
G36*
X275917D02*
X275504Y293229D01*
X274652Y292876D01*
X273921Y292315D01*
X273360Y291584D01*
X273007Y290733D01*
X272953Y290319D01*
X275917D01*
Y293283D01*
D02*
G37*
G36*
X256496D02*
Y290319D01*
X259460D01*
X259406Y290733D01*
X259053Y291584D01*
X258492Y292315D01*
X257761Y292876D01*
X256910Y293229D01*
X256496Y293283D01*
D02*
G37*
G36*
X255496D02*
X255082Y293229D01*
X254231Y292876D01*
X253500Y292315D01*
X252939Y291584D01*
X252586Y290733D01*
X252532Y290319D01*
X255496D01*
Y293283D01*
D02*
G37*
G36*
X279882Y289319D02*
X276917D01*
Y286354D01*
X277331Y286409D01*
X278182Y286762D01*
X278913Y287323D01*
X279475Y288054D01*
X279827Y288905D01*
X279882Y289319D01*
D02*
G37*
G36*
X275917D02*
X272953D01*
X273007Y288905D01*
X273360Y288054D01*
X273921Y287323D01*
X274652Y286762D01*
X275504Y286409D01*
X275917Y286354D01*
Y289319D01*
D02*
G37*
G36*
X259460D02*
X256496D01*
Y286354D01*
X256910Y286409D01*
X257761Y286762D01*
X258492Y287323D01*
X259053Y288054D01*
X259406Y288905D01*
X259460Y289319D01*
D02*
G37*
G36*
X255496D02*
X252532D01*
X252586Y288905D01*
X252939Y288054D01*
X253500Y287323D01*
X254231Y286762D01*
X255082Y286409D01*
X255496Y286354D01*
Y289319D01*
D02*
G37*
G36*
X131681Y289000D02*
X128717D01*
X128771Y288586D01*
X129124Y287735D01*
X129685Y287004D01*
X130416Y286443D01*
X131267Y286090D01*
X131681Y286036D01*
Y289000D01*
D02*
G37*
G36*
X273866Y283153D02*
Y280189D01*
X276831D01*
X276776Y280603D01*
X276423Y281454D01*
X275862Y282185D01*
X275131Y282746D01*
X274280Y283099D01*
X273866Y283153D01*
D02*
G37*
G36*
X272866D02*
X272452Y283099D01*
X271601Y282746D01*
X270870Y282185D01*
X270309Y281454D01*
X269956Y280603D01*
X269902Y280189D01*
X272866D01*
Y283153D01*
D02*
G37*
G36*
X149043Y282008D02*
Y279043D01*
X152008D01*
X151953Y279457D01*
X151601Y280308D01*
X151040Y281040D01*
X150308Y281601D01*
X149457Y281953D01*
X149043Y282008D01*
D02*
G37*
G36*
X148043D02*
X147630Y281953D01*
X146778Y281601D01*
X146047Y281040D01*
X145486Y280308D01*
X145133Y279457D01*
X145079Y279043D01*
X148043D01*
Y282008D01*
D02*
G37*
G36*
X163043Y281964D02*
Y279000D01*
X166008D01*
X165953Y279414D01*
X165601Y280265D01*
X165040Y280996D01*
X164308Y281557D01*
X163457Y281910D01*
X163043Y281964D01*
D02*
G37*
G36*
X162043D02*
X161630Y281910D01*
X160778Y281557D01*
X160047Y280996D01*
X159486Y280265D01*
X159133Y279414D01*
X159079Y279000D01*
X162043D01*
Y281964D01*
D02*
G37*
G36*
X228000Y280464D02*
Y277500D01*
X230964D01*
X230910Y277914D01*
X230557Y278765D01*
X229996Y279496D01*
X229265Y280057D01*
X228414Y280410D01*
X228000Y280464D01*
D02*
G37*
G36*
X227000D02*
X226586Y280410D01*
X225735Y280057D01*
X225004Y279496D01*
X224443Y278765D01*
X224090Y277914D01*
X224036Y277500D01*
X227000D01*
Y280464D01*
D02*
G37*
G36*
X276831Y279189D02*
X273866D01*
Y276225D01*
X274280Y276279D01*
X275131Y276632D01*
X275862Y277193D01*
X276423Y277924D01*
X276776Y278775D01*
X276831Y279189D01*
D02*
G37*
G36*
X272866D02*
X269902D01*
X269956Y278775D01*
X270309Y277924D01*
X270870Y277193D01*
X271601Y276632D01*
X272452Y276279D01*
X272866Y276225D01*
Y279189D01*
D02*
G37*
G36*
X152008Y278043D02*
X149043D01*
Y275079D01*
X149457Y275133D01*
X150308Y275486D01*
X151040Y276047D01*
X151601Y276778D01*
X151953Y277630D01*
X152008Y278043D01*
D02*
G37*
G36*
X148043D02*
X145079D01*
X145133Y277630D01*
X145486Y276778D01*
X146047Y276047D01*
X146778Y275486D01*
X147630Y275133D01*
X148043Y275079D01*
Y278043D01*
D02*
G37*
G36*
X166008Y278000D02*
X163043D01*
Y275036D01*
X163457Y275090D01*
X164308Y275443D01*
X165040Y276004D01*
X165601Y276735D01*
X165953Y277586D01*
X166008Y278000D01*
D02*
G37*
G36*
X162043D02*
X159079D01*
X159133Y277586D01*
X159486Y276735D01*
X160047Y276004D01*
X160778Y275443D01*
X161630Y275090D01*
X162043Y275036D01*
Y278000D01*
D02*
G37*
G36*
X230964Y276500D02*
X224036D01*
X224090Y276086D01*
X224443Y275235D01*
X225004Y274504D01*
X225105Y274426D01*
X224944Y273953D01*
X223547D01*
Y270500D01*
X227500D01*
X231453D01*
Y273953D01*
X230056D01*
X229895Y274426D01*
X229996Y274504D01*
X230557Y275235D01*
X230910Y276086D01*
X230964Y276500D01*
D02*
G37*
G36*
X231453Y269500D02*
X228000D01*
Y266047D01*
X231453D01*
Y269500D01*
D02*
G37*
G36*
X227000D02*
X223547D01*
Y266047D01*
X227000D01*
Y269500D01*
D02*
G37*
G36*
X217500Y273987D02*
X216468Y273851D01*
X215507Y273453D01*
X214681Y272819D01*
X214047Y271993D01*
X213649Y271032D01*
X213513Y270000D01*
X213649Y268968D01*
X214047Y268007D01*
X214681Y267181D01*
X215507Y266547D01*
X216468Y266149D01*
X217500Y266013D01*
X218532Y266149D01*
X219493Y266547D01*
X220319Y267181D01*
X220953Y268007D01*
X221351Y268968D01*
X221487Y270000D01*
X221351Y271032D01*
X220953Y271993D01*
X220319Y272819D01*
X219493Y273453D01*
X218532Y273851D01*
X217500Y273987D01*
D02*
G37*
%LPD*%
D14*
X201606Y442500D02*
X209232D01*
X186000Y426894D02*
X201606Y442500D01*
X186000Y357500D02*
Y426894D01*
X182500Y374000D02*
Y428500D01*
X168000Y359500D02*
X182500Y374000D01*
X166000Y359500D02*
X168000D01*
X176000Y451500D02*
X178500Y454000D01*
X229319Y339819D02*
X306996D01*
X148000Y326095D02*
Y395500D01*
Y434000D01*
X147000Y435000D02*
X148000Y434000D01*
X146012Y435000D02*
X147000D01*
X139500Y441512D02*
X146012Y435000D01*
X139500Y441512D02*
Y457000D01*
X216500Y446500D02*
X220500Y442500D01*
X200500Y446500D02*
X216500D01*
X182500Y428500D02*
X200500Y446500D01*
X140500Y343489D02*
Y429500D01*
X140000Y342989D02*
X140500Y343489D01*
X148000Y326095D02*
X151095Y323000D01*
X113181D02*
X151095D01*
X212500D01*
X176000Y374500D02*
Y451500D01*
X212500Y323000D02*
X229319Y339819D01*
X135828Y294500D02*
X137328Y293000D01*
X126000Y294500D02*
X135828D01*
X123000Y291500D02*
X126000Y294500D01*
X121500Y291500D02*
X123000D01*
X221000Y402000D02*
Y423500D01*
Y402000D02*
X223000Y400000D01*
Y374500D02*
Y400000D01*
X264500Y445500D02*
X270374D01*
X252500Y433500D02*
X264500Y445500D01*
X252500Y423000D02*
Y433500D01*
X270374Y445500D02*
X270500Y445374D01*
Y434500D02*
Y445374D01*
D62*
X306996Y331819D02*
D03*
X212500Y355500D02*
D03*
X227500Y270000D02*
D03*
D63*
X296996Y331819D02*
D03*
X286996D02*
D03*
X276996D02*
D03*
X266996D02*
D03*
X256996D02*
D03*
X246996D02*
D03*
X236996D02*
D03*
X287000Y423500D02*
D03*
Y433500D02*
D03*
Y443500D02*
D03*
X202500Y355500D02*
D03*
X217500Y270000D02*
D03*
D64*
X287000Y453500D02*
D03*
D65*
X296590Y377000D02*
D03*
X271000D02*
D03*
D66*
X166000Y359500D02*
D03*
X186000Y357500D02*
D03*
X274000Y321000D02*
D03*
X296996Y322819D02*
D03*
X148000Y395500D02*
D03*
X152500Y446000D02*
D03*
X246500Y358500D02*
D03*
X191500Y340000D02*
D03*
X164315Y389185D02*
D03*
X132181Y289500D02*
D03*
X140500Y429500D02*
D03*
X140000Y342989D02*
D03*
X113181Y323000D02*
D03*
X212500D02*
D03*
X218235Y344500D02*
D03*
X162543Y278500D02*
D03*
X148543Y278543D02*
D03*
X169000Y316500D02*
D03*
X150485D02*
D03*
X137328Y293000D02*
D03*
X121500Y291500D02*
D03*
X198445Y318000D02*
D03*
X227500Y277000D02*
D03*
X178500Y454000D02*
D03*
X176000Y374500D02*
D03*
X223000D02*
D03*
X281327Y479000D02*
D03*
X270500Y434500D02*
D03*
X306996Y339819D02*
D03*
X276500Y453500D02*
D03*
X270374Y445500D02*
D03*
X252500Y423000D02*
D03*
X209232Y442500D02*
D03*
X220500D02*
D03*
X296311Y294504D02*
D03*
X255996Y289819D02*
D03*
X237496Y315319D02*
D03*
Y297819D02*
D03*
X273366Y279689D02*
D03*
X276417Y289819D02*
D03*
X113784Y438500D02*
D03*
X252500Y407500D02*
D03*
X287059Y377000D02*
D03*
X236500Y386500D02*
D03*
X221000Y423500D02*
D03*
X139500Y457000D02*
D03*
X113547Y421047D02*
D03*
X113500Y407500D02*
D03*
Y393000D02*
D03*
X113547Y378500D02*
D03*
Y364500D02*
D03*
X113500Y350500D02*
D03*
X147000Y435000D02*
D03*
M02*
