G04*
G04 #@! TF.GenerationSoftware,Altium Limited,Altium Designer,18.1.7 (191)*
G04*
G04 Layer_Color=32768*
%FSLAX25Y25*%
%MOIN*%
G70*
G01*
G75*
%ADD13C,0.00787*%
%ADD14C,0.01000*%
%ADD15C,0.00394*%
D13*
X260173Y377000D02*
G03*
X307417Y377000I23622J0D01*
G01*
D02*
G03*
X260173Y377000I-23622J0D01*
G01*
X134453Y452776D02*
Y476398D01*
X110831D02*
X134453D01*
X110831Y452776D02*
Y476398D01*
Y452776D02*
X134453D01*
X251602Y464331D02*
X275224D01*
Y487953D01*
X251602D02*
X275224D01*
X251602Y464331D02*
Y487953D01*
X210000Y297819D02*
X224000D01*
X210000Y282858D02*
Y297819D01*
Y282858D02*
X224000D01*
Y297819D01*
X193500D02*
X207500D01*
X193500Y282858D02*
Y297819D01*
Y282858D02*
X207500D01*
Y297819D01*
X109270Y263535D02*
X138797D01*
X109270D02*
Y283221D01*
X138797D01*
Y263535D02*
Y283221D01*
X253087Y365189D02*
X263520D01*
X253087D02*
Y388811D01*
X263520D01*
D14*
X149784Y476594D02*
Y488406D01*
X144665Y476594D02*
X149784D01*
X144665D02*
Y488406D01*
X149784D01*
X132335Y407461D02*
Y419272D01*
X127216Y407461D02*
X132335D01*
X127216D02*
Y419272D01*
X132335D01*
Y392961D02*
Y404772D01*
X127216Y392961D02*
X132335D01*
X127216D02*
Y404772D01*
X132335D01*
Y378461D02*
Y390272D01*
X127216Y378461D02*
X132335D01*
X127216D02*
Y390272D01*
X132335D01*
Y364094D02*
Y375905D01*
X127216Y364094D02*
X132335D01*
X127216D02*
Y375905D01*
X132335D01*
Y349728D02*
Y361539D01*
X127216Y349728D02*
X132335D01*
X127216D02*
Y361539D01*
X132335D01*
Y421728D02*
Y433539D01*
X127216Y421728D02*
X132335D01*
X127216D02*
Y433539D01*
X132335D01*
X231716Y353594D02*
Y365406D01*
X236835D01*
Y353594D02*
Y365406D01*
X231716Y353594D02*
X236835D01*
X123764Y319094D02*
Y330906D01*
X128882D01*
Y319094D02*
Y330906D01*
X123764Y319094D02*
X128882D01*
X122949Y300413D02*
Y312224D01*
X128067D01*
Y300413D02*
Y312224D01*
X122949Y300413D02*
X128067D01*
D15*
X279370Y297445D02*
Y313193D01*
X263622Y297445D02*
X279370D01*
X263622D02*
Y313193D01*
X279370D01*
X277402D02*
X279370Y311224D01*
X194705Y316110D02*
Y327500D01*
X220295D01*
Y316110D02*
Y327500D01*
X194705Y316110D02*
X220295D01*
X194705Y325165D02*
X203760Y316110D01*
X137847Y338701D02*
X181154D01*
X137847Y301299D02*
X181154D01*
Y338701D01*
X137847Y301299D02*
Y338701D01*
X159500Y318032D02*
Y321969D01*
X157531Y320000D02*
X161469D01*
X210906Y375878D02*
X213465Y378437D01*
X210906Y370563D02*
Y378437D01*
Y370563D02*
X215827D01*
Y378437D01*
X210906D02*
X215827D01*
X185768Y371063D02*
X188327Y373622D01*
Y371063D02*
Y378937D01*
X183405D02*
X188327D01*
X183405Y371063D02*
Y378937D01*
Y371063D02*
X188327D01*
X244831Y339142D02*
X249161D01*
X244831Y348590D02*
X249161D01*
X244831Y339142D02*
Y348590D01*
X249161Y339142D02*
Y348590D01*
X246996Y341996D02*
Y345736D01*
X245126Y343866D02*
X248866D01*
X243335Y437776D02*
X247665D01*
X243335Y447224D02*
X247665D01*
X243335Y437776D02*
Y447224D01*
X247665Y437776D02*
Y447224D01*
X245500Y440630D02*
Y444370D01*
X243630Y442500D02*
X247370D01*
X268335Y421276D02*
X272665D01*
X268335Y430724D02*
X272665D01*
X268335Y421276D02*
Y430724D01*
X272665Y421276D02*
Y430724D01*
X270500Y424130D02*
Y427870D01*
X268630Y426000D02*
X272370D01*
X239323Y397335D02*
Y401665D01*
X248772Y397335D02*
Y401665D01*
X239323D02*
X248772D01*
X239323Y397335D02*
X248772D01*
X242177Y399500D02*
X245917D01*
X244047Y397630D02*
Y401370D01*
X121177Y411335D02*
Y415665D01*
X111728Y411335D02*
Y415665D01*
Y411335D02*
X121177D01*
X111728Y415665D02*
X121177D01*
X114583Y413500D02*
X118323D01*
X116453Y411630D02*
Y415370D01*
X121177Y396835D02*
Y401165D01*
X111728Y396835D02*
Y401165D01*
Y396835D02*
X121177D01*
X111728Y401165D02*
X121177D01*
X114583Y399000D02*
X118323D01*
X116453Y397130D02*
Y400870D01*
X121224Y382335D02*
Y386665D01*
X111776Y382335D02*
Y386665D01*
Y382335D02*
X121224D01*
X111776Y386665D02*
X121224D01*
X114630Y384500D02*
X118370D01*
X116500Y382630D02*
Y386370D01*
X121224Y367835D02*
Y372165D01*
X111776Y367835D02*
Y372165D01*
Y367835D02*
X121224D01*
X111776Y372165D02*
X121224D01*
X114630Y370000D02*
X118370D01*
X116500Y368130D02*
Y371870D01*
X121177Y353835D02*
Y358165D01*
X111728Y353835D02*
Y358165D01*
Y353835D02*
X121177D01*
X111728Y358165D02*
X121177D01*
X114583Y356000D02*
X118323D01*
X116453Y354130D02*
Y357870D01*
X121224Y425335D02*
Y429665D01*
X111776Y425335D02*
Y429665D01*
Y425335D02*
X121224D01*
X111776Y429665D02*
X121224D01*
X114630Y427500D02*
X118370D01*
X116500Y425630D02*
Y429370D01*
X243335Y460272D02*
X247665D01*
X243335Y450823D02*
X247665D01*
Y460272D01*
X243335Y450823D02*
Y460272D01*
X245500Y453677D02*
Y457417D01*
X243630Y455547D02*
X247370D01*
X149335Y474224D02*
X153665D01*
X149335Y464776D02*
X153665D01*
Y474224D01*
X149335Y464776D02*
Y474224D01*
X151500Y467630D02*
Y471370D01*
X149630Y469500D02*
X153370D01*
X248724Y420835D02*
Y425165D01*
X239276Y420835D02*
Y425165D01*
Y420835D02*
X248724D01*
X239276Y425165D02*
X248724D01*
X242130Y423000D02*
X245870D01*
X244000Y421130D02*
Y424870D01*
X248772Y413335D02*
Y417665D01*
X239323Y413335D02*
Y417665D01*
Y413335D02*
X248772D01*
X239323Y417665D02*
X248772D01*
X242177Y415500D02*
X245917D01*
X244047Y413630D02*
Y417370D01*
X248772Y405335D02*
Y409665D01*
X239323Y405335D02*
Y409665D01*
Y405335D02*
X248772D01*
X239323Y409665D02*
X248772D01*
X242177Y407500D02*
X245917D01*
X244047Y405630D02*
Y409370D01*
X204272Y375394D02*
Y379724D01*
X194823Y375394D02*
Y379724D01*
Y375394D02*
X204272D01*
X194823Y379724D02*
X204272D01*
X197677Y377559D02*
X201417D01*
X199547Y375689D02*
Y379429D01*
X151823Y436835D02*
Y441165D01*
X161272Y436835D02*
Y441165D01*
X151823D02*
X161272D01*
X151823Y436835D02*
X161272D01*
X154677Y439000D02*
X158417D01*
X156547Y437130D02*
Y440870D01*
X204224Y369835D02*
Y374165D01*
X194776Y369835D02*
Y374165D01*
Y369835D02*
X204224D01*
X194776Y374165D02*
X204224D01*
X197630Y372000D02*
X201370D01*
X199500Y370130D02*
Y373870D01*
X151823Y452835D02*
Y457165D01*
X161272Y452835D02*
Y457165D01*
X151823D02*
X161272D01*
X151823Y452835D02*
X161272D01*
X154677Y455000D02*
X158417D01*
X156547Y453130D02*
Y456870D01*
X224724Y361835D02*
Y366165D01*
X215276Y361835D02*
Y366165D01*
Y361835D02*
X224724D01*
X215276Y366165D02*
X224724D01*
X218130Y364000D02*
X221870D01*
X220000Y362130D02*
Y365870D01*
X110835Y327776D02*
X115165D01*
X110835Y337224D02*
X115165D01*
X110835Y327776D02*
Y337224D01*
X115165Y327776D02*
Y337224D01*
X113000Y330630D02*
Y334370D01*
X111130Y332500D02*
X114870D01*
X110835Y308728D02*
X115165D01*
X110835Y318177D02*
X115165D01*
X110835Y308728D02*
Y318177D01*
X115165Y308728D02*
Y318177D01*
X113000Y311583D02*
Y315323D01*
X111130Y313453D02*
X114870D01*
X153472Y286276D02*
X157803D01*
X153472Y295724D02*
X157803D01*
X153472Y286276D02*
Y295724D01*
X157803Y286276D02*
Y295724D01*
X155638Y289130D02*
Y292870D01*
X153768Y291000D02*
X157508D01*
X163835Y345776D02*
X168165D01*
X163835Y355224D02*
X168165D01*
X163835Y345776D02*
Y355224D01*
X168165Y345776D02*
Y355224D01*
X166000Y348630D02*
Y352370D01*
X164130Y350500D02*
X167870D01*
X183835Y343776D02*
X188165D01*
X183835Y353224D02*
X188165D01*
X183835Y343776D02*
Y353224D01*
X188165Y343776D02*
Y353224D01*
X186000Y346630D02*
Y350370D01*
X184130Y348500D02*
X187870D01*
X249311Y296350D02*
Y300287D01*
X247342Y298319D02*
X251279D01*
X241437Y294579D02*
X257185D01*
X241437Y302059D02*
X257185D01*
Y294579D02*
Y302059D01*
X241437Y294579D02*
Y302059D01*
X249181Y313350D02*
Y317287D01*
X247213Y315319D02*
X251150D01*
X241307Y311579D02*
X257055D01*
X241307Y319059D02*
X257055D01*
Y311579D02*
Y319059D01*
X241307Y311579D02*
Y319059D01*
X264606Y285004D02*
X268543D01*
X266575Y283035D02*
Y286972D01*
X270315Y277130D02*
Y292878D01*
X262835Y277130D02*
Y292878D01*
X270315D01*
X262835Y277130D02*
X270315D01*
X290996Y300350D02*
Y304287D01*
X289028Y302319D02*
X292965D01*
X283122Y306059D02*
X298870D01*
X283122Y298579D02*
X298870D01*
X283122D02*
Y306059D01*
X298870Y298579D02*
Y306059D01*
X144360Y448000D02*
X148297D01*
X146328Y446032D02*
Y449968D01*
X150069Y440126D02*
Y455874D01*
X142588Y440126D02*
Y455874D01*
X150069D01*
X142588Y440126D02*
X150069D01*
X154532Y394500D02*
X158468D01*
X156500Y392531D02*
Y396468D01*
X160240Y386626D02*
Y402374D01*
X152760Y386626D02*
Y402374D01*
X160240D01*
X152760Y386626D02*
X160240D01*
X207185Y342531D02*
Y346468D01*
X205217Y344500D02*
X209154D01*
X199311Y340760D02*
X215059D01*
X199311Y348240D02*
X215059D01*
Y340760D02*
Y348240D01*
X199311Y340760D02*
Y348240D01*
X185531Y304500D02*
X189469D01*
X187500Y302532D02*
Y306469D01*
X183760Y296626D02*
Y312374D01*
X191240Y296626D02*
Y312374D01*
X183760Y296626D02*
X191240D01*
X183760Y312374D02*
X191240D01*
X146575Y291000D02*
X150512D01*
X148543Y289032D02*
Y292969D01*
X152284Y283126D02*
Y298874D01*
X144803Y283126D02*
Y298874D01*
X152284D01*
X144803Y283126D02*
X152284D01*
X185531Y328815D02*
X189469D01*
X187500Y326847D02*
Y330784D01*
X183760Y320941D02*
Y336689D01*
X191240Y320941D02*
Y336689D01*
X183760Y320941D02*
X191240D01*
X183760Y336689D02*
X191240D01*
X160575Y291000D02*
X164512D01*
X162543Y289032D02*
Y292969D01*
X166284Y283126D02*
Y298874D01*
X158803Y283126D02*
Y298874D01*
X166284D01*
X158803Y283126D02*
X166284D01*
M02*
